<svg width="101" height="100" viewBox="0 0 101 100" fill="none" xmlns="http://www.w3.org/2000/svg">
<g clip-path="url(#clip0_83_6662)">
<path d="M50.521 99.5098C77.831 99.5098 99.9702 77.3435 99.9702 50C99.9702 22.6565 77.831 0.490234 50.521 0.490234C23.2109 0.490234 1.07178 22.6565 1.07178 50C1.07178 77.3435 23.2109 99.5098 50.521 99.5098Z" fill="url(#paint0_linear_83_6662)"/>
<path d="M50.521 99.5098C77.831 99.5098 99.9702 77.3435 99.9702 50C99.9702 22.6565 77.831 0.490234 50.521 0.490234C23.2109 0.490234 1.07178 22.6565 1.07178 50C1.07178 77.3435 23.2109 99.5098 50.521 99.5098Z" fill="url(#paint1_linear_83_6662)"/>
<path d="M50.521 99.5098C77.831 99.5098 99.9702 77.3435 99.9702 50C99.9702 22.6565 77.831 0.490234 50.521 0.490234C23.2109 0.490234 1.07178 22.6565 1.07178 50C1.07178 77.3435 23.2109 99.5098 50.521 99.5098Z" stroke="#0000EF" stroke-width="0.980392"/>
<path d="M63.1498 57.9733L62.9224 58.5357L63.5094 58.3852C64.1663 58.2167 64.7528 58.1663 65.3242 58.2604C65.8946 58.3545 66.4699 58.5961 67.0994 59.0398C68.3713 59.9368 69.832 61.6348 71.8743 64.5157L71.9018 64.5545L71.9399 64.5832C73.6954 65.9052 75.2241 66.7795 77.1566 67.0583C79.0803 67.3359 81.3674 67.0183 84.6349 66.0412L84.6009 65.4461L84.4924 65.4267C83.08 65.1749 82.0322 64.988 81.2612 64.5806C80.6023 64.2325 80.1385 63.717 79.869 62.7901C82.0173 63.0076 83.6061 62.9634 84.9631 62.5776C86.4183 62.164 87.5762 61.3667 88.8582 60.1489L89.5216 59.5186L88.6131 59.6222L88.585 59.6254C87.573 59.7407 86.8492 59.8199 86.257 59.7015C85.7761 59.6053 85.3713 59.3748 84.9847 58.8594C85.1427 58.7661 85.2992 58.6737 85.4544 58.5821C88.4027 56.8423 90.8313 55.4092 92.7434 53.2379C94.8267 50.8722 96.2801 47.655 97.2111 42.2705L96.6654 42.0336C94.9072 44.3634 93.8519 45.6112 92.3158 46.7235C93.0783 43.5553 93.6098 40.8923 93.5257 37.6645C93.435 34.1793 92.6278 30.0545 90.6525 23.9256L90.0555 24.0061C89.977 25.7689 89.8568 27.0534 89.5022 28.1183C89.1947 29.0411 88.7071 29.8099 87.8886 30.5771C86.21 24.8681 84.2986 21.263 81.6801 18.769C78.9918 16.2086 75.5908 14.8514 71.0449 13.5536L69.9697 13.2466L70.7389 14.059C73.2688 16.7309 75.0657 18.974 76.385 21.5596C77.6947 24.1264 78.5426 27.0483 79.1525 31.0887C78.2125 33.3605 77.8257 35.13 77.9304 36.8596C78.0353 38.5925 78.6323 40.2537 79.5987 42.3052C79.8542 44.3181 80.0221 45.7662 79.9918 47.2468C79.9628 48.6617 79.7521 50.1161 79.251 52.1222C77.2178 51.4941 75.8042 51.4205 74.6785 51.9031C73.5804 52.3738 72.8215 53.3488 72.0313 54.6455C70.9617 53.8996 70.0266 53.3754 69.1908 53.0881C68.2798 52.7749 67.4683 52.7373 66.7268 53.0183C65.9905 53.2973 65.3683 53.8738 64.7989 54.6988C64.2297 55.5233 63.6976 56.6191 63.1498 57.9733Z" fill="url(#paint2_linear_83_6662)" stroke="#F59D0B" stroke-width="0.612745"/>
<path d="M36.7893 57.9733L37.0167 58.5357L36.4297 58.3852C35.7728 58.2167 35.1863 58.1663 34.6149 58.2604C34.0445 58.3545 33.4693 58.5961 32.8398 59.0398C31.5678 59.9368 30.1071 61.6348 28.0648 64.5157L28.0373 64.5545L27.9992 64.5832C26.2437 65.9052 24.715 66.7795 22.7825 67.0583C20.8588 67.3359 18.5717 67.0183 15.3043 66.0412L15.3382 65.4461L15.4467 65.4267C16.8591 65.1749 17.907 64.988 18.6779 64.5806C19.3368 64.2325 19.8006 63.717 20.0701 62.7901C17.9218 63.0076 16.333 62.9634 14.976 62.5776C13.5208 62.164 12.3629 61.3667 11.0809 60.1489L10.4174 59.5186L11.3261 59.6222L11.3541 59.6254C12.3661 59.7407 13.0899 59.8199 13.6821 59.7015C14.163 59.6053 14.5678 59.3748 14.9544 58.8594C14.7964 58.7661 14.6399 58.6737 14.4847 58.5821C11.5365 56.8423 9.1078 55.4092 7.19569 53.2379C5.11251 50.8722 3.65902 47.655 2.72803 42.2705L3.27367 42.0336C5.03187 44.3634 6.08722 45.6112 7.62333 46.7235C6.86082 43.5553 6.32939 40.8923 6.41344 37.6645C6.50417 34.1793 7.31137 30.0545 9.28667 23.9256L9.88357 24.0061C9.9621 25.7689 10.0823 27.0534 10.437 28.1183C10.7443 29.0411 11.232 29.8099 12.0505 30.5771C13.7291 24.8681 15.6405 21.263 18.259 18.769C20.9473 16.2086 24.3483 14.8514 28.8942 13.5536L29.9694 13.2466L29.2002 14.059C26.6704 16.7309 24.8734 18.974 23.5541 21.5596C22.2444 24.1264 21.3965 27.0483 20.7866 31.0887C21.7267 33.3605 22.1134 35.13 22.0087 36.8596C21.9038 38.5925 21.3068 40.2537 20.3404 42.3052C20.0849 44.3181 19.917 45.7662 19.9473 47.2468C19.9764 48.6617 20.187 50.1161 20.6881 52.1222C22.7213 51.4941 24.1349 51.4205 25.2606 51.9031C26.3587 52.3738 27.1176 53.3488 27.9078 54.6455C28.9775 53.8996 29.9125 53.3754 30.7483 53.0881C31.6593 52.7749 32.4708 52.7373 33.2123 53.0183C33.9486 53.2973 34.5708 53.8738 35.1402 54.6988C35.7094 55.5233 36.2415 56.6191 36.7893 57.9733Z" fill="url(#paint3_linear_83_6662)" stroke="#F59D0B" stroke-width="0.612745"/>
<path d="M18.4439 77.8178L17.553 78.8552L17.468 78.7657C17.657 78.4694 17.7419 78.1613 17.7229 77.8415C17.7067 77.5216 17.6073 77.2656 17.4245 77.0736C17.2834 76.9251 17.1342 76.8483 16.977 76.8432C16.8227 76.838 16.6976 76.8885 16.6019 76.9947C16.5413 77.0619 16.5019 77.1369 16.4838 77.2199C16.4606 77.3323 16.4623 77.4694 16.4889 77.6313C16.5095 77.7491 16.5808 77.9944 16.7029 78.3673C16.8746 78.8887 16.9479 79.2873 16.9226 79.5635C16.8959 79.8383 16.7923 80.0759 16.6117 80.2762C16.3827 80.5302 16.0932 80.6524 15.7434 80.6427C15.3964 80.6329 15.0816 80.4796 14.7993 80.1828C14.7107 80.0896 14.6358 79.9918 14.5743 79.8895C14.513 79.7871 14.447 79.6464 14.3765 79.4675C14.3371 79.3677 14.2959 79.2953 14.253 79.2502C14.2171 79.2123 14.1655 79.1873 14.0985 79.1749C14.0313 79.1627 13.9577 79.1741 13.8775 79.2091L13.8008 79.1284L14.8357 77.9804L14.9124 78.0612C14.6823 78.4481 14.5769 78.8177 14.5963 79.17C14.6183 79.5222 14.7298 79.8039 14.9304 80.0149C15.0854 80.1779 15.2497 80.2618 15.4232 80.2667C15.5981 80.2731 15.7402 80.2156 15.8494 80.0947C15.914 80.0228 15.9587 79.9345 15.9833 79.8293C16.0093 79.7257 16.0134 79.6062 15.9953 79.4706C15.9786 79.3338 15.9227 79.1206 15.8276 78.8314C15.6942 78.4262 15.6145 78.1167 15.5887 77.9032C15.5628 77.6896 15.5726 77.4918 15.6183 77.3097C15.6652 77.1291 15.7527 76.9678 15.8807 76.8258C16.0989 76.5836 16.3672 76.464 16.6856 76.4668C17.0038 76.4695 17.2883 76.6026 17.5387 76.8661C17.6302 76.9622 17.7079 77.0672 17.7721 77.1814C17.821 77.2677 17.8696 77.3842 17.9178 77.5311C17.9688 77.6779 18.013 77.7709 18.0504 77.8102C18.0863 77.8481 18.1255 77.866 18.1679 77.8639C18.2102 77.8618 18.2814 77.8246 18.3816 77.7524L18.4439 77.8178Z" fill="black"/>
<path d="M19.4432 82.54L21.8901 81.0674L23.1419 82.1427L23.0751 82.2332L22.9753 82.1476C22.8846 82.0696 22.7994 82.0244 22.7197 82.0119C22.6651 82.0023 22.6066 82.0147 22.5443 82.0492C22.4988 82.074 22.4153 82.1689 22.2939 82.3338L20.6814 84.5232C20.5565 84.693 20.4866 84.8063 20.472 84.863C20.4573 84.9197 20.4637 84.9865 20.491 85.0632C20.5196 85.1385 20.5769 85.213 20.6631 85.287L20.7628 85.3728L20.6961 85.4634L19.0907 84.0843L19.1574 83.9936L19.2572 84.0794C19.3479 84.1574 19.4331 84.2025 19.5128 84.215C19.5673 84.2245 19.6265 84.2114 19.69 84.1754C19.7355 84.1504 19.8196 84.0547 19.9423 83.8881L21.7549 81.427L18.3447 83.4434L18.2902 83.3967L19.3077 79.3609L17.5853 81.6996C17.4651 81.8629 17.3949 81.9666 17.3748 82.0107C17.3343 82.1091 17.3273 82.2124 17.3539 82.3205C17.3831 82.4283 17.4681 82.5425 17.6086 82.6632L17.5419 82.7539L16.4897 81.8501L16.5565 81.7594L16.5883 81.7868C16.6551 81.8468 16.727 81.89 16.8039 81.9161C16.8822 81.9406 16.952 81.9446 17.0135 81.9282C17.0751 81.9117 17.1424 81.8722 17.2154 81.8098C17.2317 81.7944 17.2945 81.7124 17.4039 81.5639L18.9514 79.4626C19.0753 79.2945 19.144 79.1829 19.1574 79.1278C19.172 79.0711 19.165 79.005 19.1365 78.9299C19.1092 78.8531 19.0524 78.7777 18.9662 78.7037L18.8687 78.62L18.9355 78.5293L20.1917 79.6085L19.4432 82.54Z" fill="black"/>
<path d="M24.6661 85.0804L24.9212 87.4557C24.9576 87.7902 25.0125 88.0377 25.0861 88.198C25.1401 88.3132 25.2155 88.4035 25.312 88.4687L25.2552 88.5668L23.5207 87.3959L23.5775 87.2976C23.6934 87.3611 23.7746 87.3901 23.8211 87.3846C23.8692 87.3802 23.9044 87.3585 23.927 87.3195C23.97 87.2453 23.9756 87.0547 23.9436 86.7477L23.7801 85.1944L23.5927 85.223L23.0245 86.2047C22.9159 86.3922 22.8582 86.5156 22.8512 86.5748C22.8442 86.6341 22.8589 86.6993 22.8951 86.7705C22.9323 86.84 23.0124 86.9161 23.1353 86.9991L23.0785 87.0972L21.3979 85.9627L21.4547 85.8645L21.5654 85.9391C21.662 86.0045 21.7506 86.0384 21.831 86.0411C21.8879 86.045 21.9452 86.0247 22.003 85.9801C22.0456 85.9498 22.1191 85.8444 22.2235 85.6639L23.5935 83.2971C23.7 83.1132 23.7576 82.9921 23.7661 82.934C23.7747 82.8758 23.761 82.8112 23.7248 82.7399C23.6911 82.6681 23.6277 82.6007 23.5343 82.5375L23.4238 82.4629L23.4806 82.3647L25.139 83.4844L25.0822 83.5825C24.9691 83.5063 24.8729 83.4659 24.7934 83.4614C24.7365 83.4575 24.6789 83.4764 24.6205 83.5182C24.5753 83.5491 24.4999 83.6557 24.3944 83.8379L23.7463 84.9576L25.6073 84.7121C25.8662 84.6777 26.0218 84.6155 26.0741 84.5253C26.113 84.4581 26.1085 84.3813 26.0606 84.2948C26.0358 84.251 25.9536 84.1784 25.8142 84.0769L25.8711 83.9787L27.1708 84.8561L27.114 84.9543C26.9926 84.8846 26.8875 84.8456 26.7988 84.8375C26.7129 84.8286 26.4899 84.8478 26.1299 84.8951L24.6661 85.0804Z" fill="black"/>
<path d="M30.3845 86.5775L31.1631 89.8334L31.8508 88.167C31.9466 87.9347 31.9806 87.7626 31.9527 87.6509C31.9137 87.4996 31.7936 87.378 31.5926 87.2858L31.6363 87.18L32.822 87.7508L32.7783 87.8565C32.618 87.8044 32.5043 87.7827 32.4371 87.7916C32.3726 87.7993 32.3096 87.8341 32.2482 87.8959C32.1892 87.9566 32.122 88.0784 32.0466 88.2614L30.7149 91.4882L30.6249 91.4449L29.5297 87.05L28.5131 89.5137C28.421 89.7367 28.4057 89.9097 28.4669 90.0327C28.53 90.1568 28.6224 90.2481 28.7442 90.3066L28.8289 90.3474L28.7852 90.4532L27.5122 89.8405L27.5559 89.7347C27.7542 89.828 27.91 89.8504 28.023 89.802C28.136 89.7536 28.235 89.6265 28.3199 89.4207L29.4486 86.6854L29.4143 86.5456C29.3809 86.4063 29.3418 86.3063 29.2969 86.2459C29.2521 86.1854 29.1757 86.1271 29.0679 86.0706L29.1116 85.9648L30.3845 86.5775Z" fill="black"/>
<path d="M34.7452 91.3099L33.3434 90.7764C33.2403 91.1486 33.2361 91.4721 33.3307 91.747C33.4032 91.9582 33.5278 92.0974 33.7044 92.1647C33.8139 92.2062 33.9237 92.2116 34.0342 92.1806C34.1452 92.1476 34.2797 92.065 34.4376 91.9327L34.5093 92.0329C34.2714 92.2852 34.0478 92.4435 33.8383 92.5075C33.6296 92.5697 33.4151 92.5588 33.1946 92.4749C32.8157 92.3307 32.5802 92.0642 32.4879 91.6752C32.4141 91.3617 32.4385 91.0171 32.561 90.6412C32.7113 90.181 32.9454 89.8586 33.2636 89.6745C33.5841 89.489 33.8993 89.4552 34.209 89.5731C34.4677 89.6715 34.6543 89.8719 34.7686 90.1742C34.8855 90.4752 34.8776 90.8537 34.7452 91.3099ZM34.1375 90.8563C34.2408 90.5395 34.2954 90.3159 34.3011 90.1854C34.3086 90.0556 34.2886 89.9473 34.2412 89.8606C34.2145 89.8107 34.1692 89.7736 34.1054 89.7493C34.0107 89.7133 33.9169 89.7339 33.824 89.8115C33.6594 89.9457 33.5273 90.1653 33.4279 90.4702L33.3942 90.5735L34.1375 90.8563Z" fill="black"/>
<path d="M37.5176 90.8067L38.3967 91.0718L38.311 91.4033L37.8114 91.2527C37.8771 91.3787 37.9172 91.4871 37.9318 91.5782C37.9485 91.7001 37.9414 91.8203 37.9108 91.939C37.8587 92.1398 37.7616 92.2989 37.6188 92.4162C37.4786 92.532 37.3083 92.6051 37.1078 92.6356C36.9098 92.6648 36.742 92.6586 36.6043 92.617C36.5931 92.6137 36.4829 92.575 36.2733 92.501C36.1896 92.4757 36.1111 92.4845 36.0378 92.5274C35.9669 92.5689 35.9209 92.6307 35.8996 92.7131C35.8809 92.7854 35.8907 92.8523 35.9289 92.9137C35.969 92.9756 36.0469 93.0239 36.1622 93.0587L36.6465 93.1983C37.0372 93.3162 37.2941 93.4434 37.4171 93.5801C37.5941 93.7722 37.6481 94.0018 37.5789 94.269C37.5347 94.4398 37.4464 94.5799 37.3138 94.6893C37.1808 94.8008 37.0265 94.8659 36.8513 94.8845C36.5858 94.9105 36.2968 94.8765 35.9842 94.7822C35.7498 94.7115 35.5423 94.6218 35.3619 94.5132C35.1809 94.4067 35.06 94.2966 34.999 94.1829C34.9377 94.0713 34.9195 93.9673 34.9444 93.8708C34.9683 93.7784 35.0215 93.7045 35.104 93.6492C35.1877 93.5966 35.3236 93.5714 35.5115 93.574C35.3029 93.3724 35.2283 93.1572 35.2874 92.9282C35.3232 92.7894 35.4075 92.6697 35.5398 92.5689C35.6722 92.468 35.8578 92.4016 36.0967 92.3697C35.8728 92.1961 35.7259 92.012 35.6558 91.8176C35.5858 91.6233 35.578 91.4206 35.6325 91.2095C35.7038 90.9343 35.8695 90.7277 36.1299 90.5896C36.3907 90.4495 36.6848 90.4288 37.0122 90.5276C37.1853 90.5798 37.3537 90.6728 37.5176 90.8067ZM37.0169 90.7304C36.909 90.6979 36.8026 90.7296 36.6974 90.8257C36.5929 90.9198 36.4929 91.1517 36.3973 91.5214C36.3198 91.8208 36.3028 92.0377 36.3463 92.172C36.3922 92.305 36.4654 92.3866 36.5657 92.417C36.6773 92.4506 36.7847 92.4234 36.8877 92.3354C36.9907 92.2473 37.0835 92.0435 37.1661 91.7241C37.2591 91.3644 37.2806 91.1067 37.2307 90.9508C37.1961 90.8364 37.1248 90.763 37.0169 90.7304ZM36.0426 93.8121C35.8527 93.7549 35.7228 93.7341 35.6526 93.7497C35.5305 93.78 35.4556 93.8484 35.428 93.9549C35.4016 94.0573 35.4325 94.1664 35.521 94.2818C35.6089 94.3994 35.8045 94.5038 36.1078 94.5953C36.3663 94.6733 36.5788 94.6973 36.745 94.6673C36.9131 94.6379 37.0144 94.5557 37.0493 94.4212C37.0623 94.3709 37.0592 94.3245 37.0401 94.282C37.0055 94.2065 36.9399 94.1423 36.8433 94.0893C36.7486 94.037 36.4816 93.9446 36.0426 93.8121Z" fill="black"/>
<path d="M41.0221 93.0317L39.5671 92.7036C39.5107 93.0871 39.5462 93.4085 39.6737 93.6674C39.7714 93.8663 39.9119 93.9864 40.0954 94.0278C40.2089 94.0534 40.3184 94.043 40.424 93.9965C40.5302 93.9479 40.6533 93.8468 40.7936 93.693L40.8769 93.7821C40.672 94.0663 40.4698 94.255 40.2702 94.3485C40.0709 94.44 39.857 94.4599 39.6281 94.4083C39.2348 94.3196 38.9686 94.0891 38.8294 93.7168C38.7178 93.4167 38.6997 93.0716 38.7751 92.6815C38.8675 92.2037 39.06 91.8507 39.3528 91.6227C39.6478 91.393 39.9561 91.3145 40.2775 91.3869C40.546 91.4474 40.7555 91.6194 40.9059 91.9027C41.0587 92.1843 41.0974 92.5607 41.0221 93.0317ZM40.3641 92.6691C40.4276 92.3403 40.4543 92.1109 40.4439 91.9806C40.4354 91.8509 40.4024 91.7465 40.3446 91.6674C40.3121 91.6217 40.2626 91.5913 40.1965 91.5765C40.0981 91.5543 40.0078 91.5882 39.9251 91.6783C39.7785 91.8348 39.6745 92.0713 39.6133 92.3879L39.5926 92.4951L40.3641 92.6691Z" fill="black"/>
<path d="M43.1091 92.0103L43.0219 92.667C43.2396 92.3951 43.4216 92.221 43.5683 92.1446C43.7153 92.0662 43.8509 92.0365 43.9753 92.0558C44.0824 92.0723 44.1627 92.1216 44.2162 92.2037C44.2719 92.284 44.2911 92.3891 44.2738 92.5193C44.2555 92.6576 44.2097 92.7601 44.1365 92.8267C44.0651 92.8936 43.9855 92.9204 43.8976 92.9068C43.7962 92.8911 43.7129 92.8423 43.6476 92.7606C43.5824 92.6788 43.5436 92.6329 43.5314 92.6224C43.5139 92.6071 43.4927 92.5976 43.4678 92.5938C43.4124 92.5852 43.3568 92.5998 43.301 92.6374C43.2134 92.6955 43.1408 92.7865 43.0834 92.9104C42.9956 93.1012 42.9358 93.3175 42.9037 93.5591L42.8153 94.225L42.7952 94.3989C42.7796 94.5167 42.7763 94.593 42.7853 94.6282C42.8009 94.6875 42.8289 94.734 42.8693 94.7677C42.9119 94.7995 42.9863 94.8269 43.0926 94.8495L43.0777 94.961L41.6294 94.737L41.6441 94.6255C41.7622 94.6332 41.8451 94.6113 41.8929 94.5597C41.9429 94.5063 41.9846 94.3537 42.018 94.1017L42.2304 92.5003C42.2523 92.3351 42.2586 92.2286 42.2493 92.1808C42.2378 92.12 42.2158 92.0734 42.183 92.0409C42.1502 92.0085 42.0886 91.98 41.9982 91.9554L42.0134 91.8408L43.1091 92.0103Z" fill="black"/>
<path d="M45.7792 90.9191C45.9042 90.9311 46.0061 90.9891 46.0848 91.093C46.1636 91.1949 46.1975 91.3123 46.1866 91.4452C46.1756 91.5782 46.122 91.6873 46.0258 91.7722C45.9315 91.8574 45.8227 91.894 45.6996 91.8821C45.5765 91.8703 45.4755 91.8135 45.3967 91.7116C45.3178 91.6098 45.2838 91.4924 45.2948 91.3594C45.3058 91.2265 45.3585 91.1173 45.4527 91.0321C45.5472 90.945 45.656 90.9072 45.7792 90.9191ZM46.0667 92.3699L45.876 94.6794C45.8591 94.8852 45.8702 95.0193 45.9098 95.0816C45.9493 95.142 46.0333 95.1826 46.1615 95.2033L46.1522 95.3154L44.6948 95.1751L44.704 95.063C44.8237 95.0703 44.9153 95.0414 44.9788 94.9764C45.0213 94.9322 45.051 94.8074 45.0679 94.6016L45.2084 92.8999C45.2254 92.6941 45.214 92.5612 45.1744 92.5007C45.135 92.4384 45.0521 92.3968 44.9258 92.3764L44.9353 92.261L46.0667 92.3699Z" fill="black"/>
<path d="M51.165 95.4494L48.8529 95.4657L48.8525 95.3968C49.5558 94.4803 49.9819 93.8639 50.1308 93.5478C50.2814 93.2318 50.3558 92.9236 50.354 92.6232C50.3527 92.4041 50.2888 92.2231 50.1623 92.08C50.0359 91.9349 49.8819 91.863 49.7004 91.8642C49.4028 91.8663 49.173 92.0286 49.0108 92.351L48.9033 92.3111C49.0053 91.9098 49.1618 91.6125 49.3731 91.4191C49.5845 91.2256 49.8292 91.128 50.1074 91.126C50.3063 91.1247 50.4882 91.1734 50.6529 91.2723C50.8178 91.3713 50.947 91.5081 51.0408 91.6826C51.1345 91.8552 51.1819 92.0175 51.1828 92.1697C51.1845 92.4472 51.1147 92.7294 50.9736 93.0162C50.7808 93.4035 50.3582 93.9447 49.7055 94.6398L50.5545 94.6338C50.7632 94.6324 50.8983 94.622 50.96 94.6028C51.0237 94.5836 51.0755 94.5519 51.1158 94.5079C51.1562 94.4617 51.2087 94.3663 51.2735 94.222L51.3778 94.2212L51.165 95.4494Z" fill="black"/>
<path d="M56.3013 92.3681L57.899 94.0236C58.1244 94.2565 58.3127 94.4094 58.464 94.4825C58.5735 94.5341 58.6849 94.5518 58.7979 94.5357L58.812 94.6504L56.7842 94.941L56.7701 94.8262C56.8968 94.7955 56.9765 94.762 57.009 94.7257C57.0435 94.6892 57.058 94.6482 57.0524 94.6027C57.0417 94.5158 56.9335 94.3651 56.7279 94.1505L55.6856 93.0657L55.558 93.2165L55.699 94.3642C55.726 94.5834 55.7542 94.7182 55.7838 94.7687C55.8134 94.8192 55.8631 94.8594 55.9331 94.8895C56.0028 94.9173 56.1094 94.9209 56.2531 94.9004L56.2672 95.0152L54.3025 95.2968L54.2885 95.182L54.4177 95.1635C54.5307 95.1473 54.6189 95.1125 54.6826 95.0592C54.7287 95.0232 54.7609 94.968 54.7792 94.8939C54.7941 94.8412 54.7886 94.7094 54.7626 94.4984L54.4226 91.7315C54.3962 91.5164 54.3691 91.3836 54.3415 91.3328C54.3138 91.2821 54.2651 91.2417 54.1951 91.2118C54.1268 91.1794 54.0382 91.1711 53.929 91.1868L53.7997 91.2053L53.7856 91.0906L55.7243 90.8126L55.7385 90.9274C55.6063 90.9463 55.5084 90.9814 55.4445 91.0327C55.3983 91.0687 55.365 91.1229 55.3446 91.1953C55.328 91.2504 55.3328 91.3843 55.359 91.5973L55.5199 92.9064L56.8094 91.4368C56.989 91.2322 57.0722 91.0771 57.0592 90.9717C57.0495 90.8931 57.0007 90.837 56.9128 90.8033C56.8679 90.7865 56.7618 90.787 56.5945 90.8046L56.5803 90.6899L58.0997 90.4722L58.1138 90.5869C57.9792 90.6168 57.8752 90.6589 57.802 90.7137C57.7306 90.766 57.57 90.9342 57.3204 91.2184L56.3013 92.3681Z" fill="black"/>
<path d="M60.1138 91.2331C60.3439 91.1781 60.5711 91.1911 60.7955 91.2719C61.0198 91.3528 61.2072 91.4993 61.3575 91.7112C61.5097 91.9226 61.6146 92.1689 61.6722 92.4499C61.7555 92.8553 61.7298 93.2172 61.5952 93.5357C61.4329 93.9206 61.149 94.1617 60.7435 94.2587C60.3455 94.3539 60.0082 94.2765 59.7313 94.0265C59.4546 93.7765 59.2754 93.453 59.1939 93.0558C59.1099 92.6465 59.1462 92.2639 59.3027 91.908C59.4607 91.5496 59.7311 91.3248 60.1138 91.2331ZM60.1697 91.4473C60.0736 91.4704 59.9987 91.5299 59.9452 91.6261C59.8932 91.7197 59.8797 91.8853 59.9047 92.1229C59.9312 92.358 59.9867 92.6813 60.071 93.0927C60.1157 93.3107 60.1708 93.5112 60.236 93.6943C60.2864 93.8338 60.3533 93.9332 60.4366 93.9924C60.52 94.0515 60.605 94.0706 60.6918 94.0499C60.7766 94.0295 60.8421 93.9873 60.8883 93.9228C60.9476 93.8359 60.9768 93.7275 60.9758 93.5973C60.9738 93.3949 60.9125 92.9993 60.7917 92.4107C60.7207 92.0643 60.6541 91.8314 60.5919 91.7117C60.5294 91.59 60.4572 91.5079 60.3753 91.4655C60.3174 91.4345 60.249 91.4284 60.1697 91.4473Z" fill="black"/>
<path d="M62.8681 89.4585L63.14 90.4875L63.7584 90.297L63.8373 90.5949L63.2187 90.7855L63.6774 92.5217C63.7202 92.6842 63.7546 92.7875 63.7803 92.8317C63.8074 92.8732 63.8425 92.9036 63.8857 92.9228C63.9285 92.94 63.9647 92.944 63.9944 92.9348C64.1151 92.8977 64.2031 92.7632 64.2584 92.5314L64.3595 92.5719C64.3108 93.0033 64.1174 93.2712 63.7794 93.3754C63.614 93.4263 63.4608 93.4204 63.3196 93.3575C63.1799 93.2922 63.078 93.2031 63.0141 93.0905C62.9775 93.028 62.9195 92.8464 62.84 92.5454L62.4385 91.0259L62.0986 91.1306L62.0708 91.0253C62.2577 90.7747 62.4068 90.5258 62.5184 90.2788C62.6318 90.0313 62.7177 89.7673 62.7762 89.4868L62.8681 89.4585Z" fill="black"/>
<path d="M66.5706 91.9094C66.3557 92.3249 66.1242 92.5796 65.8764 92.6736C65.7306 92.729 65.5928 92.7237 65.4629 92.6581C65.3323 92.5904 65.2418 92.4788 65.1912 92.3234C65.1227 92.1127 65.145 91.892 65.2584 91.6611C65.371 91.4282 65.6634 91.0652 66.1356 90.572L66.0453 90.2946C65.9775 90.0859 65.9239 89.9592 65.8848 89.9143C65.8467 89.8669 65.7923 89.8345 65.7212 89.8173C65.6493 89.798 65.577 89.8023 65.5041 89.8299C65.3857 89.8749 65.2974 89.9404 65.2395 90.0266C65.2037 90.0799 65.1934 90.1302 65.2088 90.1774C65.2221 90.2188 65.2644 90.2603 65.3352 90.3019C65.4321 90.3603 65.4931 90.4289 65.5188 90.5076C65.5502 90.604 65.5433 90.6995 65.4983 90.794C65.4545 90.8858 65.3788 90.9521 65.2713 90.9929C65.1564 91.0364 65.0477 91.0356 64.945 90.9907C64.8442 90.9448 64.7773 90.8718 64.7448 90.7714C64.6986 90.6298 64.7067 90.4752 64.769 90.3078C64.8306 90.1386 64.9432 89.9842 65.1066 89.8447C65.2701 89.7054 65.4521 89.5976 65.6526 89.5215C65.895 89.4296 66.1045 89.4131 66.2814 89.472C66.4594 89.5283 66.5904 89.6135 66.6747 89.7274C66.727 89.8005 66.8016 89.9855 66.8983 90.2827L67.2469 91.3544C67.2879 91.4804 67.3183 91.5583 67.3383 91.5883C67.3576 91.6164 67.3791 91.6348 67.4023 91.6436C67.4257 91.6524 67.4492 91.6524 67.4729 91.6434C67.5203 91.6255 67.5568 91.5707 67.5822 91.4791L67.6874 91.519C67.6436 91.6991 67.5833 91.8414 67.5067 91.9457C67.4313 92.0473 67.3316 92.1215 67.2077 92.1686C67.0619 92.2239 66.9361 92.2307 66.8305 92.1889C66.7241 92.1453 66.6374 92.0522 66.5706 91.9094ZM66.5005 91.694L66.1999 90.7698C66.0248 90.9932 65.9095 91.2051 65.8538 91.4054C65.8174 91.5386 65.8166 91.6593 65.8519 91.7675C65.8814 91.8581 65.9373 91.9264 66.0199 91.9725C66.0827 92.0083 66.1552 92.0106 66.2372 91.9796C66.3283 91.9449 66.416 91.8499 66.5005 91.694Z" fill="black"/>
<path d="M71.6634 87.5742C72.0363 87.481 72.3177 87.4583 72.5075 87.5063C72.7791 87.5737 72.9767 87.7431 73.1002 88.0147C73.2306 88.301 73.2317 88.5946 73.1037 88.8949C72.9449 89.2604 72.6159 89.5756 72.1166 89.8405L70.3248 90.7912L70.2776 90.6873C70.4405 90.6008 70.5435 90.5265 70.5862 90.4643C70.6297 90.3993 70.6509 90.3346 70.6496 90.2703C70.6501 90.205 70.6034 90.0693 70.5097 89.8634L69.3853 87.392C69.2917 87.186 69.2207 87.0632 69.1726 87.0237C69.1253 86.9813 69.065 86.9599 68.9916 86.9594C68.9181 86.9588 68.8009 87.0013 68.6397 87.0868L68.5923 86.9829L70.2826 86.086C70.6867 85.8716 70.9906 85.7593 71.1945 85.7486C71.3975 85.7361 71.583 85.7818 71.7508 85.8857C71.9178 85.9877 72.0408 86.1258 72.1201 86.2999C72.2034 86.4834 72.2165 86.68 72.159 86.8894C72.1006 87.097 71.9355 87.3253 71.6634 87.5742ZM70.6824 88.0007C70.9285 87.87 71.0961 87.7439 71.1849 87.6224C71.2756 87.4999 71.3274 87.3678 71.3404 87.226C71.3535 87.0844 71.3217 86.9292 71.2449 86.7607C71.1683 86.5922 71.0745 86.4711 70.9635 86.3976C70.8535 86.3211 70.7284 86.2852 70.5885 86.2898C70.4485 86.2944 70.2524 86.3648 70.0001 86.5009L70.6824 88.0007ZM70.782 88.2197L71.3378 89.4414L71.3991 89.5832C71.4452 89.6843 71.5034 89.7486 71.5741 89.7762C71.6457 89.801 71.7283 89.7886 71.8218 89.7389C71.9605 89.6653 72.0731 89.5649 72.1594 89.4378C72.2466 89.3078 72.2929 89.1635 72.2983 89.005C72.3027 88.8446 72.2696 88.6866 72.1989 88.5312C72.118 88.3534 72.0075 88.2144 71.8673 88.1145C71.7263 88.0127 71.5763 87.9691 71.4173 87.9838C71.2581 87.9985 71.0464 88.077 70.782 88.2197Z" fill="black"/>
<path d="M75.6439 85.9433L74.364 86.7595C74.5617 87.0841 74.7884 87.2956 75.0442 87.3941C75.2405 87.47 75.4194 87.4565 75.5807 87.3536C75.6804 87.29 75.7548 87.2026 75.8039 87.0913C75.852 86.9782 75.8799 86.8139 75.8876 86.5982L76.0049 86.6033C76.0307 86.9624 75.999 87.2492 75.9099 87.4635C75.8197 87.676 75.6741 87.8465 75.4727 87.9748C75.1268 88.1955 74.7863 88.2188 74.4512 88.0449C74.1814 87.9044 73.9528 87.6626 73.7651 87.3195C73.5353 86.8992 73.4574 86.4983 73.5315 86.1167C73.6061 85.7324 73.7848 85.4499 74.0676 85.2696C74.3038 85.119 74.5659 85.0936 74.8537 85.1935C75.1424 85.2905 75.4058 85.5403 75.6439 85.9433ZM74.9315 86.1542C74.7733 85.865 74.6498 85.676 74.561 85.5873C74.4738 85.4976 74.3842 85.4445 74.2922 85.4281C74.2395 85.418 74.1842 85.4315 74.126 85.4686C74.0394 85.5238 73.9938 85.6147 73.989 85.7413C73.9783 85.9637 74.0491 86.2142 74.2014 86.4927L74.2529 86.5869L74.9315 86.1542Z" fill="black"/>
<path d="M75.8274 82.6085L77.2943 84.9064L77.4617 83.9722C77.4969 83.7813 77.5115 83.6514 77.5051 83.5827C77.5003 83.5128 77.4831 83.4546 77.4536 83.4083C77.424 83.3618 77.3817 83.3362 77.327 83.3314C77.2723 83.3265 77.1897 83.3551 77.0792 83.4172L77.0183 83.3219L78.0177 82.5776L78.0787 82.673C77.9865 82.7492 77.919 82.8362 77.8759 82.9341C77.8317 83.0303 77.7756 83.266 77.7077 83.6409L77.6287 84.0797L78.6832 84.5184C79.1095 84.6976 79.3558 84.793 79.4219 84.8046C79.5132 84.8227 79.6024 84.8045 79.6896 84.7498L79.7487 84.8425L78.5966 85.7004L78.5373 85.6077C78.5882 85.5698 78.6182 85.5322 78.6274 85.495C78.638 85.4567 78.6357 85.4254 78.6204 85.4014C78.5952 85.3619 78.5152 85.3138 78.3804 85.2571L77.4934 84.8874L77.4473 85.146L77.7236 85.5789C77.8409 85.7626 77.9303 85.8659 77.9917 85.8885C78.052 85.9095 78.1354 85.8893 78.2416 85.8279L78.3008 85.9207L77.1486 86.7785L77.0894 86.6857C77.1766 86.6056 77.2226 86.5232 77.2273 86.4387C77.2302 86.3808 77.173 86.26 77.0557 86.0762L75.4932 83.6287C75.3771 83.4468 75.2888 83.3452 75.2285 83.3242C75.1697 83.302 75.0868 83.3209 74.9794 83.3806L74.9185 83.2852L75.8274 82.6085Z" fill="black"/>
<path d="M81.2129 83.033C81.138 83.502 80.9982 83.8253 80.7933 84.0029C80.6729 84.1074 80.5413 84.152 80.3986 84.1367C80.2546 84.1197 80.1349 84.0469 80.0393 83.9184C79.91 83.7444 79.8631 83.5281 79.8988 83.2698C79.9333 83.0097 80.0975 82.5623 80.3911 81.9277L80.2206 81.6985C80.0923 81.526 80.0029 81.4257 79.9522 81.3975C79.9017 81.3662 79.8403 81.3553 79.768 81.3646C79.6943 81.3722 79.6275 81.4021 79.5672 81.4545C79.4693 81.5393 79.4063 81.6328 79.378 81.7349C79.3606 81.7981 79.3665 81.8492 79.3955 81.8883C79.421 81.9224 79.4735 81.9464 79.5532 81.9602C79.6623 81.9806 79.7412 82.0232 79.7895 82.0883C79.8488 82.1679 79.8718 82.2605 79.8583 82.3657C79.8452 82.4681 79.7943 82.5578 79.7054 82.6349C79.6106 82.7171 79.5078 82.7554 79.397 82.7498C79.2878 82.7428 79.2024 82.6978 79.1407 82.615C79.0535 82.4978 79.0136 82.3492 79.0208 82.169C79.027 81.9872 79.0856 81.8013 79.1969 81.6111C79.3081 81.4209 79.4467 81.254 79.6123 81.1103C79.8126 80.9366 80.0052 80.8458 80.1901 80.8379C80.3753 80.8271 80.5251 80.8603 80.6396 80.9377C80.7115 80.9877 80.8387 81.1355 81.0213 81.3812L81.68 82.2667C81.7573 82.3709 81.8101 82.4335 81.8382 82.4546C81.865 82.4741 81.8909 82.4839 81.9156 82.4838C81.9403 82.4838 81.9625 82.4752 81.982 82.4583C82.0212 82.4243 82.0388 82.3596 82.0347 82.2641L82.1461 82.2639C82.1603 82.4496 82.1472 82.6053 82.107 82.7312C82.0671 82.8541 81.9959 82.9599 81.8936 83.0487C81.773 83.1532 81.6566 83.2048 81.544 83.2034C81.4303 83.2003 81.3199 83.1436 81.2129 83.033ZM81.0805 82.855L80.5126 82.0912C80.4163 82.3648 80.3726 82.6059 80.3818 82.8148C80.3883 82.9535 80.4249 83.0677 80.4913 83.1572C80.547 83.2319 80.6208 83.2763 80.7129 83.2901C80.7833 83.3014 80.8523 83.2776 80.92 83.2188C80.9954 83.1535 81.0489 83.0322 81.0805 82.855Z" fill="black"/>
<path d="M82.3702 78.5322L83.0251 79.2382L82.9523 79.3099C82.6804 79.1768 82.4635 79.1165 82.3016 79.1292C82.1411 79.1403 82.0146 79.1915 81.9218 79.283C81.8633 79.3406 81.8316 79.4114 81.8266 79.4953C81.8203 79.5777 81.8407 79.6466 81.8875 79.7021C81.9227 79.7437 81.9708 79.7697 82.0318 79.7801C82.1309 79.7984 82.3503 79.7812 82.6904 79.7288C83.029 79.6747 83.2766 79.6694 83.4334 79.7126C83.5904 79.7529 83.7248 79.8395 83.8367 79.9719C83.9382 80.0922 84.0099 80.2375 84.0519 80.408C84.0938 80.5784 84.0901 80.7444 84.0409 80.9058C83.9916 81.0673 83.9055 81.2084 83.7828 81.3293C83.6872 81.4235 83.5321 81.5169 83.3175 81.6096C83.2605 81.6348 83.224 81.6551 83.2083 81.6706C83.1612 81.7169 83.1545 81.7941 83.1882 81.9022L83.1175 81.9717L82.4273 81.2286L82.5001 81.1569C82.7361 81.2971 82.9528 81.3632 83.15 81.3554C83.3486 81.3461 83.4979 81.2922 83.5978 81.1939C83.6664 81.1263 83.7032 81.0491 83.7082 80.9624C83.7135 80.8725 83.6888 80.7952 83.6341 80.7305C83.5716 80.6565 83.4962 80.6136 83.4079 80.6018C83.3195 80.5901 83.1549 80.6024 82.914 80.6392C82.5577 80.6909 82.3109 80.7051 82.1738 80.6821C81.9729 80.6485 81.808 80.5554 81.6791 80.4027C81.5386 80.2363 81.4645 80.0339 81.4569 79.7958C81.4495 79.5548 81.5463 79.3352 81.7475 79.137C81.8561 79.0301 81.985 78.9554 82.1345 78.9126C82.1926 78.8978 82.2337 78.8784 82.258 78.8545C82.2837 78.8292 82.2999 78.8034 82.3064 78.7772C82.3118 78.7494 82.3087 78.6917 82.2975 78.6039L82.3702 78.5322Z" fill="black"/>
<path d="M82.6455 76.3685C82.734 76.2722 82.8404 76.2246 82.9648 76.2256C83.0876 76.2251 83.1929 76.2719 83.2807 76.366C83.3684 76.4602 83.4118 76.5743 83.4109 76.7084C83.4113 76.8413 83.3679 76.955 83.2808 77.0497C83.1938 77.1445 83.0888 77.192 82.9657 77.1925C82.8429 77.193 82.7376 77.1462 82.6498 77.0521C82.5621 76.9581 82.518 76.8446 82.5176 76.7119C82.5158 76.5777 82.5584 76.4632 82.6455 76.3685ZM83.8627 77.0564L85.3862 78.6902C85.5219 78.8358 85.6246 78.912 85.6943 78.9191C85.7626 78.9247 85.8451 78.881 85.9418 78.7876L86.0157 78.867L84.9847 79.9883L84.9107 79.9089C84.9924 79.8142 85.0302 79.7197 85.0245 79.6254C85.0202 79.5619 84.9502 79.4575 84.8146 79.3119L83.6919 78.1081C83.5563 77.9625 83.4542 77.887 83.3859 77.8812C83.3163 77.8741 83.2338 77.9165 83.1384 78.0083L83.0624 77.9268L83.8627 77.0564Z" fill="black"/>
<path d="M33.3836 80.944L31.7136 79.9862L31.2562 80.3416C31.1048 80.4609 31.001 80.5713 30.9448 80.6733C30.8704 80.8084 30.869 80.9386 30.9406 81.0639C30.9824 81.1378 31.1213 81.255 31.3572 81.4152L31.2846 81.5468L29.7124 80.6451L29.7849 80.5134C29.969 80.5846 30.1475 80.5936 30.3208 80.54C30.4954 80.4842 30.7642 80.3185 31.1271 80.0431L34.9391 77.1655L35.0054 77.2035L34.5303 82.1351C34.4865 82.6029 34.49 82.9154 34.541 83.0726C34.5796 83.1914 34.6676 83.2981 34.8052 83.3926L34.7326 83.5241L32.4456 82.2126L32.5182 82.081L32.6123 82.135C32.7959 82.2403 32.9392 82.2882 33.0424 82.2786C33.1145 82.2701 33.1701 82.2302 33.2092 82.1592C33.2328 82.1164 33.25 82.0686 33.2609 82.0155C33.268 81.9915 33.2822 81.8827 33.3033 81.6889L33.3836 80.944ZM33.4102 80.613L33.6213 78.5485L31.9807 79.7931L33.4102 80.613Z" fill="black"/>
<path d="M39.1743 79.3123L37.9754 82.7394L39.0792 82.2186C39.3056 82.1133 39.452 82.0308 39.5182 81.9712C39.5869 81.9125 39.6333 81.8485 39.6575 81.7794C39.6816 81.7101 39.6742 81.6425 39.6351 81.5763C39.5959 81.51 39.4996 81.4375 39.346 81.3585L39.3958 81.2164L40.9742 81.7906L40.9245 81.9328C40.7711 81.8857 40.6263 81.8748 40.4899 81.9003C40.3546 81.9233 40.065 82.0388 39.6213 82.2469L39.1027 82.4913L39.4986 84.03C39.657 84.6536 39.7569 85.0076 39.7981 85.0919C39.8531 85.21 39.944 85.298 40.071 85.3557L40.0226 85.4941L38.2032 84.832L38.2515 84.6937C38.3319 84.7229 38.3951 84.7285 38.441 84.7106C38.4893 84.6936 38.5198 84.6671 38.5324 84.6313C38.553 84.5724 38.5383 84.4443 38.4885 84.2471L38.1558 82.9523L37.8504 83.0968L37.6246 83.7422C37.5287 84.0163 37.4939 84.197 37.5198 84.2845C37.5467 84.3693 37.635 84.4491 37.7844 84.5237L37.736 84.662L35.9165 84L35.9649 83.8616C36.1185 83.9001 36.241 83.8899 36.3324 83.8307C36.3948 83.7899 36.4739 83.6324 36.5699 83.3584L37.8467 79.7084C37.9416 79.437 37.9756 79.2588 37.9487 79.1739C37.9243 79.0899 37.8378 79.0094 37.6893 78.9322L37.739 78.79L39.1743 79.3123Z" fill="black"/>
<path d="M45.2907 82.7159L44.7286 85.6464C44.6737 85.932 44.6656 86.116 44.7041 86.1985C44.7431 86.2783 44.8407 86.3435 44.9967 86.3941L44.9691 86.5382L43.4735 86.2397L43.5696 85.7393C43.3533 85.9179 43.148 86.039 42.9536 86.1027C42.7599 86.1638 42.5545 86.1727 42.3372 86.1294C42.1305 86.0881 41.9583 85.9872 41.8207 85.8267C41.6861 85.6641 41.608 85.4906 41.5863 85.3061C41.5647 85.1217 41.5953 84.8132 41.6782 84.3809L41.9632 82.8957C42.0175 82.6127 42.0251 82.4314 41.9861 82.3516C41.9497 82.2722 41.8524 82.2057 41.6943 82.1519L41.7227 82.0039L43.2181 82.3023L42.7274 84.8604C42.6762 85.1273 42.655 85.3018 42.6637 85.3839C42.6749 85.4665 42.703 85.5331 42.7476 85.5836C42.7949 85.6345 42.8539 85.6671 42.9245 85.6812C43.0188 85.7 43.1086 85.6917 43.1943 85.6561C43.3123 85.6076 43.4648 85.4925 43.6517 85.3109L44.0358 83.3093C44.09 83.0263 44.0977 82.845 44.0587 82.7652C44.0222 82.6858 43.925 82.6193 43.7667 82.5655L43.7953 82.4175L45.2907 82.7159Z" fill="black"/>
<path d="M48.0253 82.965L48.0041 83.4581C48.205 83.2548 48.3954 83.1095 48.5753 83.0222C48.7554 82.9323 48.9466 82.8918 49.149 82.9009C49.3915 82.9117 49.5895 82.99 49.7435 83.1356C49.8975 83.2786 49.9968 83.4532 50.0413 83.6594C50.0773 83.8161 50.0857 84.1145 50.0669 84.5547L50.0032 86.0381C49.9906 86.3315 50.008 86.5161 50.0555 86.5917C50.1058 86.6647 50.213 86.7144 50.3774 86.7408L50.3712 86.8875L48.4811 86.8031L48.4873 86.6564C48.6294 86.6437 48.7332 86.5885 48.7987 86.4907C48.8442 86.4247 48.8729 86.2571 48.8844 85.9881L48.9571 84.2928C48.9706 83.9804 48.967 83.7829 48.9466 83.7003C48.9261 83.6177 48.8875 83.5533 48.8308 83.5073C48.7768 83.4586 48.7151 83.4328 48.646 83.4296C48.4168 83.4194 48.1965 83.577 47.985 83.9024L47.8974 85.9442C47.8851 86.2294 47.9028 86.4112 47.9501 86.4895C48.0001 86.5679 48.0953 86.6199 48.2357 86.6451L48.2293 86.7919L46.3394 86.7075L46.3456 86.5608C46.5035 86.5515 46.6176 86.5049 46.6879 86.4209C46.7358 86.3631 46.7659 86.1875 46.7785 85.8942L46.8709 83.7423C46.8833 83.4543 46.8643 83.2738 46.8141 83.2008C46.7665 83.128 46.6607 83.0769 46.4964 83.0478L46.5029 82.897L48.0253 82.965Z" fill="black"/>
<path d="M52.7646 81.4932L52.8742 82.8839L53.7593 82.8113L53.791 83.2139L52.9059 83.2864L53.0909 85.6326C53.1082 85.8521 53.1287 85.9937 53.1523 86.0573C53.1785 86.1178 53.2186 86.1664 53.2722 86.203C53.3257 86.2368 53.3738 86.2519 53.4162 86.2484C53.5891 86.2342 53.7419 86.0867 53.8749 85.8057L54.0015 85.8853C53.8272 86.4234 53.4982 86.7123 53.0145 86.752C52.778 86.7713 52.572 86.7215 52.3969 86.6021C52.2241 86.4798 52.1085 86.3379 52.0503 86.1763C52.0165 86.0863 51.9835 85.8379 51.9515 85.4313L51.7897 83.378L51.3033 83.4178L51.292 83.2755C51.6079 83.0068 51.8723 82.7299 52.0853 82.4451C52.3009 82.1601 52.4834 81.8464 52.633 81.5039L52.7646 81.4932Z" fill="black"/>
<path d="M57.1619 85.5125C56.7935 86.0062 56.4315 86.2892 56.0759 86.3616C55.8666 86.4041 55.6792 86.3702 55.5135 86.2596C55.3472 86.1465 55.2435 85.9845 55.2023 85.7739C55.1465 85.4886 55.2168 85.2081 55.413 84.9324C55.6087 84.6541 56.0736 84.2433 56.8075 83.7003L56.7339 83.3242C56.6786 83.0415 56.6283 82.8674 56.5827 82.8018C56.5394 82.7329 56.4707 82.6804 56.3766 82.6441C56.282 82.6051 56.1824 82.5962 56.0777 82.6175C55.9077 82.652 55.7754 82.7192 55.6808 82.8188C55.6222 82.8807 55.5991 82.9436 55.6116 83.0077C55.6225 83.0637 55.6727 83.1256 55.7621 83.1933C55.884 83.2878 55.9552 83.3883 55.9761 83.4951C56.0017 83.6257 55.9752 83.7476 55.8967 83.8606C55.8203 83.9704 55.7049 84.041 55.5507 84.0724C55.3859 84.106 55.2375 84.0834 55.1051 84.005C54.9755 83.9259 54.8974 83.8185 54.8707 83.6824C54.8333 83.4904 54.872 83.2926 54.9871 83.0889C55.1018 82.8826 55.2834 82.7056 55.5318 82.5581C55.7803 82.4104 56.0483 82.3073 56.336 82.2489C56.6838 82.178 56.9732 82.1982 57.2043 82.3093C57.4375 82.4171 57.6013 82.5529 57.696 82.7168C57.7545 82.8213 57.823 83.075 57.9018 83.4777L58.1858 84.9299C58.2192 85.1006 58.2469 85.2072 58.2688 85.2498C58.2902 85.2899 58.3162 85.318 58.3464 85.3339C58.3767 85.35 58.4089 85.3545 58.4428 85.3476C58.5109 85.3338 58.5705 85.2703 58.6218 85.1573L58.7583 85.2294C58.6661 85.4533 58.5583 85.625 58.4349 85.7444C58.3135 85.8606 58.1639 85.9368 57.986 85.973C57.7769 86.0155 57.6038 85.9995 57.4668 85.9247C57.3293 85.8473 57.2277 85.7099 57.1619 85.5125ZM57.1048 85.2204L56.8599 83.9683C56.5805 84.222 56.3848 84.4726 56.2728 84.7201C56.1989 84.8848 56.1764 85.0405 56.205 85.1872C56.229 85.3099 56.2934 85.4092 56.3979 85.4849C56.4774 85.5436 56.5759 85.561 56.6936 85.5371C56.8244 85.5105 56.9614 85.405 57.1048 85.2204Z" fill="black"/>
<path d="M60.2047 81.3134L60.3656 81.7788C60.4776 81.5136 60.601 81.3064 60.7359 81.1569C60.8699 81.0048 61.0325 80.8945 61.2236 80.8258C61.4524 80.7434 61.6649 80.7405 61.8611 80.8171C62.0562 80.8909 62.2123 81.0151 62.329 81.1894C62.4198 81.3211 62.5371 81.5947 62.6808 82.0102L63.165 83.4106C63.2607 83.6875 63.3446 83.852 63.4163 83.9041C63.4896 83.9527 63.6074 83.9579 63.7694 83.9197L63.8174 84.0582L62.0332 84.7L61.9853 84.5615C62.1124 84.4956 62.1884 84.4048 62.2135 84.2891C62.2315 84.2106 62.1966 84.0443 62.1088 83.7905L61.5555 82.1901C61.4535 81.8951 61.3779 81.7133 61.3285 81.6444C61.2793 81.5756 61.22 81.5307 61.1504 81.5096C61.0826 81.4849 61.0159 81.4843 60.9506 81.5079C60.7343 81.5857 60.5877 81.8158 60.5107 82.1982L61.1771 84.1255C61.2703 84.3949 61.3531 84.5568 61.4257 84.6114C61.5009 84.6651 61.6082 84.677 61.7476 84.647L61.7956 84.7856L60.0114 85.4272L59.9635 85.2887C60.1066 85.22 60.1954 85.1334 60.2299 85.0286C60.253 84.9568 60.2168 84.7824 60.1211 84.5054L59.4186 82.4742C59.3246 82.2023 59.2409 82.0421 59.1676 81.9935C59.0967 81.944 58.9798 81.937 58.8168 81.9726L58.7676 81.8303L60.2047 81.3134Z" fill="black"/>
<path d="M65.3962 78.897L66.0259 80.0304L65.9045 80.0931C65.5884 79.8233 65.3205 79.666 65.1009 79.6209C64.8837 79.5746 64.6978 79.5912 64.543 79.671C64.4455 79.7214 64.3791 79.7983 64.3438 79.9019C64.3073 80.003 64.3107 80.0972 64.3541 80.1846C64.3866 80.2502 64.4417 80.3009 64.5194 80.3371C64.6449 80.3972 64.9427 80.4584 65.4128 80.5205C65.8817 80.5803 66.2131 80.6668 66.4068 80.7802C66.6017 80.8899 66.751 81.0491 66.8545 81.2578C66.9484 81.447 66.9941 81.6565 66.9916 81.8864C66.9892 82.1163 66.9275 82.3234 66.8068 82.5076C66.686 82.6919 66.5233 82.8368 66.3187 82.9424C66.1593 83.0247 65.9211 83.0836 65.604 83.1193C65.5194 83.1295 65.4641 83.1412 65.4379 83.1548C65.3593 83.1953 65.3241 83.2897 65.3319 83.438L65.2142 83.4988L64.5503 82.3053L64.6716 82.2427C64.9375 82.5078 65.203 82.6725 65.4681 82.7368C65.7355 82.7999 65.9525 82.7885 66.1191 82.7026C66.2333 82.6437 66.3085 82.5606 66.345 82.4533C66.3827 82.3426 66.3762 82.2362 66.3257 82.1342C66.2678 82.0177 66.1822 81.9355 66.0686 81.8874C65.9552 81.8393 65.7319 81.7929 65.399 81.7484C64.9074 81.6791 64.5743 81.6041 64.3998 81.5234C64.144 81.4056 63.9566 81.2265 63.8374 80.9862C63.7073 80.7242 63.678 80.4422 63.7493 80.1401C63.8217 79.8346 64.0258 79.5951 64.3613 79.422C64.5421 79.3287 64.7391 79.2834 64.9526 79.2859C65.035 79.2891 65.0963 79.2803 65.1368 79.2595C65.1796 79.2374 65.2099 79.2111 65.2276 79.1806C65.2441 79.1476 65.2599 79.0739 65.2749 78.9596L65.3962 78.897Z" fill="black"/>
<path d="M66.2769 76.3253C66.4233 76.2306 66.58 76.2034 66.747 76.2435C66.9125 76.2813 67.041 76.3738 67.1325 76.5207C67.2238 76.6677 67.2499 76.8263 67.2106 76.9967C67.1735 77.1657 67.0829 77.2967 66.9387 77.3898C66.7947 77.4831 66.6397 77.5108 66.4742 77.4729C66.3086 77.4351 66.1801 77.3427 66.0887 77.1957C65.9974 77.0488 65.9702 76.8908 66.0073 76.7219C66.0429 76.5507 66.1327 76.4185 66.2769 76.3253ZM67.7201 77.5801L69.3071 80.1329C69.4485 80.3603 69.5652 80.4894 69.6568 80.5202C69.7472 80.5488 69.8707 80.5188 70.0273 80.4304L70.1043 80.5544L68.3986 81.6576L68.3215 81.5336C68.4582 81.4387 68.5362 81.3304 68.5551 81.2086C68.5674 81.1267 68.5027 80.9719 68.3614 80.7446L67.192 78.8636C67.0506 78.6363 66.9347 78.5082 66.8444 78.4798C66.7526 78.4489 66.6295 78.4769 66.4752 78.5639L66.3959 78.4365L67.7201 77.5801Z" fill="black"/>
<path d="M61.5239 67.3506C64.4346 63.8836 64.8001 64.112 68.2735 61.0293C66.8174 64.9523 67.286 65.9382 69.2478 67.7862C67.3631 69.4049 66.1827 70.9262 63.9759 73.6718L61.5239 67.3506Z" fill="#FBFBFB" stroke="black" stroke-width="0.612745"/>
<path d="M39.6393 67.3506C36.7286 63.8836 36.3631 64.112 32.8897 61.0293C34.3458 64.9523 33.8772 65.9382 31.9155 67.7862C33.8001 69.4049 34.9805 70.9262 37.1873 73.6718L39.6393 67.3506Z" fill="#FBFBFB" stroke="black" stroke-width="0.612745"/>
<path d="M61.8377 63.8426C53.8797 69.8567 48.3032 69.4298 38.9612 63.7414C38.6212 63.5344 38.1724 63.6954 38.05 64.0746L35.9914 70.4535C35.9025 70.7292 36.0238 71.0328 36.2757 71.1754C48.2596 77.9601 54.4798 77.8175 64.9052 71.1947C65.1478 71.0406 65.2528 70.7344 65.1528 70.4646L62.7966 64.1157C62.652 63.7264 62.1688 63.5923 61.8377 63.8426Z" fill="#FBFBFB" stroke="black" stroke-width="0.612745" stroke-linejoin="round"/>
<path d="M40.8853 72.1203C40.8961 72.0472 40.9156 71.9765 40.9435 71.9085C41.0659 71.9306 41.1655 71.9436 41.2424 71.9475C41.3194 71.9513 41.3894 71.9388 41.4523 71.9098C41.5166 71.8765 41.5848 71.8203 41.657 71.7415C41.7303 71.6583 41.8226 71.5402 41.9335 71.387L44.3171 68.1279C44.3685 68.1243 44.4272 68.1274 44.4933 68.1376C44.5636 68.149 44.622 68.1616 44.6686 68.1756L44.9947 72.3658C45.0102 72.5424 45.0243 72.6828 45.0369 72.787C45.0507 72.8866 45.0756 72.9634 45.1112 73.017C45.1469 73.0707 45.1983 73.1172 45.2655 73.1562C45.334 73.1911 45.4299 73.2341 45.5534 73.2853C45.5425 73.3585 45.5231 73.4292 45.4952 73.4972C45.3468 73.4529 45.1948 73.4051 45.0391 73.3539C44.8835 73.3026 44.7272 73.2536 44.5704 73.2067C44.4094 73.1586 44.2456 73.112 44.079 73.067C43.9167 73.0234 43.755 72.9774 43.5939 72.9294C43.5995 72.8593 43.6189 72.7887 43.6523 72.7174C43.866 72.7574 44.0157 72.7806 44.101 72.787C44.1877 72.789 44.2425 72.748 44.2657 72.6641C44.2753 72.6288 44.28 72.5871 44.2794 72.5392C44.2789 72.4912 44.2771 72.431 44.2741 72.3585L44.1925 71.2301L42.7618 70.8029L42.1922 71.6219C42.1395 71.6969 42.0968 71.7607 42.064 71.813C42.0367 71.8621 42.017 71.9088 42.0048 71.9529C41.978 72.0501 42.0034 72.1246 42.0808 72.1765C42.1638 72.2251 42.3019 72.2902 42.495 72.3718C42.4828 72.4494 42.4635 72.52 42.4367 72.5837C42.2926 72.5407 42.1512 72.4961 42.0125 72.4499C41.8739 72.4037 41.7324 72.3591 41.5883 72.3161C41.4696 72.2805 41.3545 72.2485 41.2432 72.2201C41.1316 72.1915 41.0124 72.1583 40.8853 72.1203ZM42.9337 70.5532L44.1736 70.9235L44.0356 68.9756L42.9337 70.5532Z" fill="black"/>
<path d="M53.1253 72.6257C53.0584 73.039 53.0083 73.4594 52.9748 73.8868C52.6684 73.9621 52.3562 74.0301 52.0386 74.0913C51.721 74.1523 51.3811 74.1828 51.0188 74.1828C50.4003 74.1828 49.8625 74.0795 49.4056 73.8727C48.9542 73.6661 48.603 73.3773 48.3523 73.0062C48.1015 72.6303 47.9761 72.1889 47.9761 71.6816C47.9761 71.1696 48.1015 70.7187 48.3523 70.3287C48.603 69.9343 48.957 69.6265 49.4139 69.4058C49.8708 69.1851 50.4086 69.0747 51.0272 69.0747C51.2556 69.0747 51.4562 69.0865 51.6291 69.1099C51.8018 69.1334 52.0108 69.1686 52.256 69.2156C52.3674 69.2344 52.4649 69.2531 52.5485 69.272C52.6321 69.2908 52.7185 69.3002 52.8077 69.3002C52.8356 69.3002 52.8662 69.3002 52.8997 69.3002C52.9331 69.2954 52.9609 69.2908 52.9832 69.2861C52.9944 69.4927 53.0056 69.7064 53.0167 69.9272C53.0278 70.148 53.0445 70.3781 53.0668 70.6177C52.9554 70.6318 52.8606 70.6365 52.7826 70.6318C52.5653 69.7816 51.9941 69.3566 51.069 69.3566C50.6957 69.3566 50.378 69.4199 50.1161 69.5468C49.8542 69.6688 49.6424 69.8379 49.4807 70.054C49.3192 70.2654 49.2021 70.505 49.1297 70.7727C49.0572 71.0404 49.021 71.3199 49.021 71.6111C49.021 72.0245 49.0935 72.405 49.2384 72.7525C49.3833 73.1001 49.6117 73.3773 49.9238 73.5839C50.2359 73.7906 50.6371 73.8939 51.1275 73.8939C51.59 73.8939 51.9578 73.7906 52.2309 73.5839C52.5095 73.3773 52.7102 73.0555 52.8327 72.6187C52.8773 72.6187 52.922 72.6187 52.9665 72.6187C53.0167 72.6187 53.0696 72.621 53.1253 72.6257Z" fill="black"/>
<path d="M60.731 70.6987C60.776 71.1152 60.839 71.5337 60.9201 71.9543C60.6453 72.1145 60.3634 72.2695 60.0742 72.4195C59.7849 72.5694 59.4663 72.6963 59.1181 72.8003C58.5235 72.9778 57.9792 73.033 57.4853 72.9654C56.9967 72.8964 56.5827 72.7195 56.2434 72.4348C55.9031 72.1456 55.6656 71.7572 55.5313 71.2696C55.396 70.7775 55.3971 70.308 55.535 69.8612C55.6716 69.4099 55.9303 69.0126 56.3113 68.6691C56.692 68.3257 57.1798 68.0652 57.7744 67.8876C57.994 67.8221 58.19 67.7757 58.3623 67.7488C58.5345 67.7217 58.7448 67.6956 58.9929 67.6704C59.105 67.6564 59.2037 67.6465 59.2891 67.6404C59.3744 67.6346 59.4598 67.6188 59.5457 67.5931C59.5723 67.5852 59.6018 67.5764 59.634 67.5668C59.6649 67.5527 59.6904 67.5402 59.7106 67.5293C59.776 67.7248 59.8433 67.927 59.9124 68.1359C59.9815 68.345 60.0585 68.5614 60.1433 68.7853C60.0399 68.8309 59.9501 68.8625 59.8739 68.8804C59.44 68.1256 58.7785 67.881 57.8892 68.1466C57.5302 68.2538 57.2417 68.4059 57.0235 68.6031C56.804 68.7956 56.6453 69.019 56.547 69.273C56.4476 69.5227 56.3985 69.7865 56.3998 70.0647C56.401 70.3429 56.4401 70.6219 56.5171 70.9018C56.6266 71.2991 56.7968 71.6441 57.0281 71.9366C57.2594 72.2292 57.5524 72.4299 57.907 72.539C58.2617 72.648 58.6748 72.6322 59.1461 72.4914C59.5907 72.3586 59.917 72.1537 60.1247 71.8766C60.3379 71.5979 60.4457 71.231 60.4479 70.776C60.4907 70.7631 60.5335 70.7504 60.5764 70.7375C60.6246 70.7232 60.6761 70.7102 60.731 70.6987Z" fill="black"/>
<g filter="url(#filter0_diii_83_6662)">
<path d="M48.1687 52.9413L46.2601 37.9922C42.5424 31.8723 38.5326 29.6587 29.3457 28.9604V49.2041C30.4041 49.5133 40.7751 48.959 48.1687 52.9413Z" fill="#C7C4BA"/>
<path d="M48.1687 52.9413L46.2601 37.9922C42.5424 31.8723 38.5326 29.6587 29.3457 28.9604V49.2041C30.4041 49.5133 40.7751 48.959 48.1687 52.9413Z" stroke="#3C3C3C" stroke-width="0.612745" stroke-linejoin="round"/>
</g>
<g filter="url(#filter1_diiii_83_6662)">
<path d="M49.8336 51.8794V32.7071C46.5136 27.4175 42.7419 25.5381 33.4434 23.6519V43.9482C40.4084 43.9588 43.9801 45.7216 49.8336 51.8794Z" fill="#F6F4F5"/>
<path d="M49.8336 51.8794V32.7071C46.5136 27.4175 42.7419 25.5381 33.4434 23.6519V43.9482C40.4084 43.9588 43.9801 45.7216 49.8336 51.8794Z" stroke="url(#paint4_linear_83_6662)" stroke-width="0.612745" stroke-linejoin="round"/>
</g>
<g filter="url(#filter2_dii_83_6662)">
<path d="M52.6499 52.9415L54.5067 37.9923C58.1232 31.8723 62.024 29.6587 70.9608 28.9604V49.2041C69.9312 49.5134 59.8424 48.9591 52.6499 52.9415Z" fill="#C7C4BA"/>
<path d="M52.6499 52.9415L54.5067 37.9923C58.1232 31.8723 62.024 29.6587 70.9608 28.9604V49.2041C69.9312 49.5134 59.8424 48.9591 52.6499 52.9415Z" stroke="url(#paint5_linear_83_6662)" stroke-width="0.612745" stroke-linejoin="round"/>
</g>
<g filter="url(#filter3_iii_83_6662)">
<path d="M51.3057 51.9419V32.7697C54.6256 27.4802 58.3973 25.6008 67.6959 23.7144V44.0108C60.7309 44.0213 57.159 45.7841 51.3057 51.9419Z" fill="#F6F4F5"/>
</g>
<path d="M51.3057 51.9419V32.7697C54.6256 27.4802 58.3973 25.6008 67.6959 23.7144V44.0108C60.7309 44.0213 57.159 45.7841 51.3057 51.9419Z" stroke="url(#paint6_linear_83_6662)" stroke-width="0.612745" stroke-linejoin="round"/>
<path d="M50.1881 3.55106L49.9089 2.92773L49.6296 3.55106L46.7908 9.88885L39.6378 10.5267L38.9062 10.5919L39.4677 11.066L44.8558 15.6167L43.2799 22.3395L43.1195 23.0238L43.7294 22.6757L49.9089 19.148L56.0884 22.6757L56.6983 23.0238L56.5378 22.3395L54.9619 15.6167L60.3501 11.066L60.9115 10.5919L60.1799 10.5267L53.0269 9.88885L50.1881 3.55106Z" fill="url(#paint7_linear_83_6662)" stroke="#F59D0B" stroke-width="0.612745"/>
</g>
<defs>
<filter id="filter0_diii_83_6662" x="27.4464" y="26.571" width="25.0728" height="30.8433" filterUnits="userSpaceOnUse" color-interpolation-filters="sRGB">
<feFlood flood-opacity="0" result="BackgroundImageFix"/>
<feColorMatrix in="SourceAlpha" type="matrix" values="0 0 0 0 0 0 0 0 0 0 0 0 0 0 0 0 0 0 127 0" result="hardAlpha"/>
<feOffset dx="1.22549" dy="1.34804"/>
<feGaussianBlur stdDeviation="1.40931"/>
<feComposite in2="hardAlpha" operator="out"/>
<feColorMatrix type="matrix" values="0 0 0 0 0 0 0 0 0 0 0 0 0 0 0 0 0 0 0.68 0"/>
<feBlend mode="normal" in2="BackgroundImageFix" result="effect1_dropShadow_83_6662"/>
<feBlend mode="normal" in="SourceGraphic" in2="effect1_dropShadow_83_6662" result="shape"/>
<feColorMatrix in="SourceAlpha" type="matrix" values="0 0 0 0 0 0 0 0 0 0 0 0 0 0 0 0 0 0 127 0" result="hardAlpha"/>
<feOffset dy="1.71569"/>
<feGaussianBlur stdDeviation="1.06618"/>
<feComposite in2="hardAlpha" operator="arithmetic" k2="-1" k3="1"/>
<feColorMatrix type="matrix" values="0 0 0 0 0 0 0 0 0 0 0 0 0 0 0 0 0 0 0.67 0"/>
<feBlend mode="normal" in2="shape" result="effect2_innerShadow_83_6662"/>
<feColorMatrix in="SourceAlpha" type="matrix" values="0 0 0 0 0 0 0 0 0 0 0 0 0 0 0 0 0 0 127 0" result="hardAlpha"/>
<feOffset dx="2.32843" dy="-2.08333"/>
<feGaussianBlur stdDeviation="2.05882"/>
<feComposite in2="hardAlpha" operator="arithmetic" k2="-1" k3="1"/>
<feColorMatrix type="matrix" values="0 0 0 0 1 0 0 0 0 1 0 0 0 0 1 0 0 0 1 0"/>
<feBlend mode="normal" in2="effect2_innerShadow_83_6662" result="effect3_innerShadow_83_6662"/>
<feColorMatrix in="SourceAlpha" type="matrix" values="0 0 0 0 0 0 0 0 0 0 0 0 0 0 0 0 0 0 127 0" result="hardAlpha"/>
<feOffset dx="1.22549" dy="1.59314"/>
<feGaussianBlur stdDeviation="1.15196"/>
<feComposite in2="hardAlpha" operator="arithmetic" k2="-1" k3="1"/>
<feColorMatrix type="matrix" values="0 0 0 0 0 0 0 0 0 0 0 0 0 0 0 0 0 0 0.63 0"/>
<feBlend mode="normal" in2="effect3_innerShadow_83_6662" result="effect4_innerShadow_83_6662"/>
</filter>
<filter id="filter1_diiii_83_6662" x="30.8088" y="21.9486" width="22.199" height="33.5952" filterUnits="userSpaceOnUse" color-interpolation-filters="sRGB">
<feFlood flood-opacity="0" result="BackgroundImageFix"/>
<feColorMatrix in="SourceAlpha" type="matrix" values="0 0 0 0 0 0 0 0 0 0 0 0 0 0 0 0 0 0 127 0" result="hardAlpha"/>
<feOffset dx="0.490196" dy="0.980392"/>
<feGaussianBlur stdDeviation="1.18873"/>
<feComposite in2="hardAlpha" operator="out"/>
<feColorMatrix type="matrix" values="0 0 0 0 0 0 0 0 0 0 0 0 0 0 0 0 0 0 0.46 0"/>
<feBlend mode="normal" in2="BackgroundImageFix" result="effect1_dropShadow_83_6662"/>
<feBlend mode="normal" in="SourceGraphic" in2="effect1_dropShadow_83_6662" result="shape"/>
<feColorMatrix in="SourceAlpha" type="matrix" values="0 0 0 0 0 0 0 0 0 0 0 0 0 0 0 0 0 0 127 0" result="hardAlpha"/>
<feOffset dx="-2.32843" dy="1.96078"/>
<feGaussianBlur stdDeviation="1.96078"/>
<feComposite in2="hardAlpha" operator="arithmetic" k2="-1" k3="1"/>
<feColorMatrix type="matrix" values="0 0 0 0 0 0 0 0 0 0 0 0 0 0 0 0 0 0 0.25 0"/>
<feBlend mode="normal" in2="shape" result="effect2_innerShadow_83_6662"/>
<feColorMatrix in="SourceAlpha" type="matrix" values="0 0 0 0 0 0 0 0 0 0 0 0 0 0 0 0 0 0 127 0" result="hardAlpha"/>
<feOffset dx="0.367647" dy="1.71569"/>
<feGaussianBlur stdDeviation="1.06618"/>
<feComposite in2="hardAlpha" operator="arithmetic" k2="-1" k3="1"/>
<feColorMatrix type="matrix" values="0 0 0 0 0 0 0 0 0 0 0 0 0 0 0 0 0 0 0.67 0"/>
<feBlend mode="normal" in2="effect2_innerShadow_83_6662" result="effect3_innerShadow_83_6662"/>
<feColorMatrix in="SourceAlpha" type="matrix" values="0 0 0 0 0 0 0 0 0 0 0 0 0 0 0 0 0 0 127 0" result="hardAlpha"/>
<feOffset dx="2.32843" dy="0.490196"/>
<feGaussianBlur stdDeviation="0.398284"/>
<feComposite in2="hardAlpha" operator="arithmetic" k2="-1" k3="1"/>
<feColorMatrix type="matrix" values="0 0 0 0 0 0 0 0 0 0 0 0 0 0 0 0 0 0 0.16 0"/>
<feBlend mode="normal" in2="effect3_innerShadow_83_6662" result="effect4_innerShadow_83_6662"/>
<feColorMatrix in="SourceAlpha" type="matrix" values="0 0 0 0 0 0 0 0 0 0 0 0 0 0 0 0 0 0 127 0" result="hardAlpha"/>
<feOffset dx="-1.83824" dy="-1.10294"/>
<feGaussianBlur stdDeviation="2.41422"/>
<feComposite in2="hardAlpha" operator="arithmetic" k2="-1" k3="1"/>
<feColorMatrix type="matrix" values="0 0 0 0 1 0 0 0 0 1 0 0 0 0 1 0 0 0 1 0"/>
<feBlend mode="normal" in2="effect4_innerShadow_83_6662" result="effect5_innerShadow_83_6662"/>
</filter>
<filter id="filter2_dii_83_6662" x="50.6281" y="26.571" width="24.6831" height="30.8437" filterUnits="userSpaceOnUse" color-interpolation-filters="sRGB">
<feFlood flood-opacity="0" result="BackgroundImageFix"/>
<feColorMatrix in="SourceAlpha" type="matrix" values="0 0 0 0 0 0 0 0 0 0 0 0 0 0 0 0 0 0 127 0" result="hardAlpha"/>
<feOffset dx="1.22549" dy="1.34804"/>
<feGaussianBlur stdDeviation="1.40931"/>
<feComposite in2="hardAlpha" operator="out"/>
<feColorMatrix type="matrix" values="0 0 0 0 0 0 0 0 0 0 0 0 0 0 0 0 0 0 0.68 0"/>
<feBlend mode="normal" in2="BackgroundImageFix" result="effect1_dropShadow_83_6662"/>
<feBlend mode="normal" in="SourceGraphic" in2="effect1_dropShadow_83_6662" result="shape"/>
<feColorMatrix in="SourceAlpha" type="matrix" values="0 0 0 0 0 0 0 0 0 0 0 0 0 0 0 0 0 0 127 0" result="hardAlpha"/>
<feOffset dy="1.71569"/>
<feGaussianBlur stdDeviation="1.06618"/>
<feComposite in2="hardAlpha" operator="arithmetic" k2="-1" k3="1"/>
<feColorMatrix type="matrix" values="0 0 0 0 0 0 0 0 0 0 0 0 0 0 0 0 0 0 0.67 0"/>
<feBlend mode="normal" in2="shape" result="effect2_innerShadow_83_6662"/>
<feColorMatrix in="SourceAlpha" type="matrix" values="0 0 0 0 0 0 0 0 0 0 0 0 0 0 0 0 0 0 127 0" result="hardAlpha"/>
<feOffset dx="-1.71569" dy="-2.08333"/>
<feGaussianBlur stdDeviation="1.45833"/>
<feComposite in2="hardAlpha" operator="arithmetic" k2="-1" k3="1"/>
<feColorMatrix type="matrix" values="0 0 0 0 1 0 0 0 0 1 0 0 0 0 1 0 0 0 1 0"/>
<feBlend mode="normal" in2="effect2_innerShadow_83_6662" result="effect3_innerShadow_83_6662"/>
</filter>
<filter id="filter3_iii_83_6662" x="48.9772" y="23.7144" width="20.1034" height="30.1883" filterUnits="userSpaceOnUse" color-interpolation-filters="sRGB">
<feFlood flood-opacity="0" result="BackgroundImageFix"/>
<feBlend mode="normal" in="SourceGraphic" in2="BackgroundImageFix" result="shape"/>
<feColorMatrix in="SourceAlpha" type="matrix" values="0 0 0 0 0 0 0 0 0 0 0 0 0 0 0 0 0 0 127 0" result="hardAlpha"/>
<feOffset dx="-2.32843" dy="1.96078"/>
<feGaussianBlur stdDeviation="1.96078"/>
<feComposite in2="hardAlpha" operator="arithmetic" k2="-1" k3="1"/>
<feColorMatrix type="matrix" values="0 0 0 0 0 0 0 0 0 0 0 0 0 0 0 0 0 0 0.25 0"/>
<feBlend mode="normal" in2="shape" result="effect1_innerShadow_83_6662"/>
<feColorMatrix in="SourceAlpha" type="matrix" values="0 0 0 0 0 0 0 0 0 0 0 0 0 0 0 0 0 0 127 0" result="hardAlpha"/>
<feOffset dx="0.367647" dy="1.71569"/>
<feGaussianBlur stdDeviation="1.06618"/>
<feComposite in2="hardAlpha" operator="arithmetic" k2="-1" k3="1"/>
<feColorMatrix type="matrix" values="0 0 0 0 0 0 0 0 0 0 0 0 0 0 0 0 0 0 0.67 0"/>
<feBlend mode="normal" in2="effect1_innerShadow_83_6662" result="effect2_innerShadow_83_6662"/>
<feColorMatrix in="SourceAlpha" type="matrix" values="0 0 0 0 0 0 0 0 0 0 0 0 0 0 0 0 0 0 127 0" result="hardAlpha"/>
<feOffset dx="1.83824" dy="0.490196"/>
<feGaussianBlur stdDeviation="0.692402"/>
<feComposite in2="hardAlpha" operator="arithmetic" k2="-1" k3="1"/>
<feColorMatrix type="matrix" values="0 0 0 0 0 0 0 0 0 0 0 0 0 0 0 0 0 0 0.25 0"/>
<feBlend mode="normal" in2="effect2_innerShadow_83_6662" result="effect3_innerShadow_83_6662"/>
</filter>
<linearGradient id="paint0_linear_83_6662" x1="99.4806" y1="50" x2="1.56131" y2="50" gradientUnits="userSpaceOnUse">
<stop stop-color="#EBEFF5"/>
<stop offset="1" stop-color="#E5E5E7"/>
</linearGradient>
<linearGradient id="paint1_linear_83_6662" x1="50.521" y1="0.98043" x2="50.521" y2="8.57847" gradientUnits="userSpaceOnUse">
<stop stop-color="white"/>
<stop offset="1" stop-color="white" stop-opacity="0"/>
</linearGradient>
<linearGradient id="paint2_linear_83_6662" x1="95.4407" y1="57.2918" x2="63.4946" y2="57.8419" gradientUnits="userSpaceOnUse">
<stop offset="0.48983" stop-color="#FFFE01"/>
<stop offset="0.95923" stop-color="white"/>
</linearGradient>
<linearGradient id="paint3_linear_83_6662" x1="4.49832" y1="57.2918" x2="36.4446" y2="57.8419" gradientUnits="userSpaceOnUse">
<stop offset="0.48983" stop-color="#FFFE01"/>
<stop offset="0.95923" stop-color="white"/>
</linearGradient>
<linearGradient id="paint4_linear_83_6662" x1="33.4434" y1="22.9025" x2="49.3751" y2="52.2256" gradientUnits="userSpaceOnUse">
<stop/>
<stop offset="0.218706"/>
<stop offset="0.653223" stop-color="#8B8B8B"/>
<stop offset="1" stop-color="#232323"/>
</linearGradient>
<linearGradient id="paint5_linear_83_6662" x1="61.1012" y1="28.9604" x2="70.5201" y2="50.2093" gradientUnits="userSpaceOnUse">
<stop/>
<stop offset="0.645138" stop-color="#8B8B8B"/>
<stop offset="1" stop-color="#282828"/>
</linearGradient>
<linearGradient id="paint6_linear_83_6662" x1="67.6959" y1="22.965" x2="51.7642" y2="52.2882" gradientUnits="userSpaceOnUse">
<stop/>
<stop offset="0.653223" stop-color="#8B8B8B"/>
<stop offset="1" stop-color="#232323"/>
</linearGradient>
<linearGradient id="paint7_linear_83_6662" x1="49.9089" y1="3.67642" x2="49.9089" y2="24.3872" gradientUnits="userSpaceOnUse">
<stop offset="0.484786" stop-color="#FFFE01"/>
<stop offset="1" stop-color="white"/>
</linearGradient>
<clipPath id="clip0_83_6662">
<rect width="100" height="100" fill="white" transform="translate(0.5)"/>
</clipPath>
</defs>
</svg>
