<svg width="107" height="100" viewBox="0 0 107 100" fill="none" xmlns="http://www.w3.org/2000/svg">
<g clip-path="url(#clip0_83_7191)">
<path d="M1.2334 50L27.7589 0.5H80.069L105.728 50L80.069 99.5H27.7589L1.2334 50Z" fill="white" stroke="black"/>
<path d="M16.5239 52.3217L11.8611 52.444L11.8351 51.4871L13.8905 51.4324V51.3734L11.7916 49.7969L11.7568 48.6504L13.8905 50.2774L16.4196 48.5112L16.45 49.6536L14.5684 50.9434L15.1725 51.3986L16.4979 51.3649L16.5239 52.3217Z" fill="#4547F1"/>
<path d="M14.5052 43.9401C15.0157 43.9853 15.4394 44.1171 15.7784 44.3362C16.1152 44.5533 16.3607 44.8283 16.5172 45.1624C16.6736 45.4974 16.7312 45.8653 16.6909 46.2667C16.6529 46.6662 16.5258 47.0159 16.3086 47.3163C16.0891 47.6177 15.7914 47.8453 15.4177 47.9992C15.0439 48.1509 14.6039 48.2047 14.0967 48.1593C13.5926 48.1119 13.1711 47.9802 12.8321 47.7631C12.4931 47.5439 12.2476 47.2678 12.0933 46.9327C11.9401 46.5987 11.8826 46.2319 11.9195 45.8326C11.9608 45.4311 12.089 45.0802 12.3063 44.7788C12.5214 44.4786 12.8147 44.2519 13.1884 44.1002C13.5622 43.9463 14.0011 43.8926 14.5052 43.9401ZM14.4138 44.9053C13.9217 44.8611 13.5361 44.9306 13.2579 45.1161C12.9798 45.2994 12.8234 45.5649 12.7886 45.9127C12.7571 46.2583 12.8603 46.5471 13.0972 46.7768C13.3351 47.0076 13.7001 47.1456 14.1922 47.1898C14.6877 47.2352 15.0766 47.1667 15.3568 46.9833C15.6349 46.8011 15.7903 46.5366 15.8218 46.1909C15.8566 45.8432 15.7556 45.5533 15.5177 45.3226C15.2776 45.0897 14.9093 44.9506 14.4138 44.9053Z" fill="#4547F1"/>
<path d="M12.3389 42.6975L12.6213 41.5467L15.9674 41.0367L15.9804 40.9904L13.2297 39.0725L13.5122 37.9219L18.0489 38.9714L17.8273 39.8734L14.8723 39.1906L14.8637 39.2285L17.5144 41.0452L17.3624 41.6606L14.1423 42.12L14.1337 42.158L17.0973 42.845L16.8757 43.7471L12.3389 42.6975Z" fill="#4547F1"/>
<path d="M18.2693 38.4478L13.9106 36.8419L14.5668 35.1728C14.6918 34.8524 14.8613 34.6027 15.0753 34.4224C15.287 34.2402 15.5271 34.1305 15.7966 34.0937C16.066 34.0579 16.3463 34.0927 16.6353 34.199C16.9254 34.3065 17.1568 34.4625 17.3306 34.6669C17.5044 34.8693 17.6086 35.1074 17.6435 35.3793C17.6783 35.6522 17.6326 35.9514 17.5044 36.277L17.2089 37.0315L18.6213 37.5543L18.2693 38.4478ZM16.4701 36.7618L16.7091 36.1549C16.808 35.8967 16.8135 35.6807 16.7265 35.5058C16.6396 35.3287 16.4875 35.2012 16.2703 35.1222C16.0563 35.041 15.8574 35.0379 15.6749 35.1138C15.4924 35.1895 15.3511 35.3582 15.249 35.6195L15.0144 36.2223L16.4701 36.7618Z" fill="#4547F1"/>
<path d="M19.6982 34.9043L15.5352 32.8684L16.9518 30.1455L17.6775 30.4995L16.704 32.3668L17.6949 32.8515L18.5944 31.1234L19.3202 31.4816L18.4205 33.2098L19.4158 33.6945L20.3935 31.8189L21.1192 32.1729L19.6982 34.9043Z" fill="#4547F1"/>
<path d="M18.0455 29.8342L17.3633 29.4084L19.4405 26.2852L20.1228 26.7108L19.3493 27.8742L22.5867 29.8974L22.0565 30.694L18.819 28.6708L18.0455 29.8342Z" fill="#4547F1"/>
<path d="M23.6066 28.4329L19.9736 25.5961L21.9465 23.2188L22.581 23.712L21.2295 25.3433L22.09 26.0176L23.3371 24.5086L23.976 25.006L22.7288 26.515L23.5935 27.1936L24.9538 25.554L25.5881 26.0471L23.6066 28.4329Z" fill="#4547F1"/>
<path d="M25.4083 19.7759L28.6935 22.9835L28.0895 23.5694L24.5826 22.933L24.5565 22.954L26.625 24.9773L25.9254 25.6516L22.6401 22.444L23.2529 21.8539L26.7468 22.4946L26.7771 22.4693L24.713 20.4503L25.4083 19.7759Z" fill="#4547F1"/>
<path d="M29.0513 18.5797C28.9209 18.4565 28.7709 18.3975 28.5993 18.4027C28.4286 18.4091 28.2505 18.4817 28.0648 18.6219C27.8768 18.7684 27.7628 18.917 27.7215 19.0687C27.6813 19.2205 27.7074 19.3542 27.7996 19.4691C27.8985 19.5956 28.0333 19.6494 28.2038 19.6294C28.3755 19.6072 28.5536 19.5535 28.7383 19.4691L29.1294 19.2921C29.3783 19.1741 29.6205 19.0971 29.8551 19.0602C30.092 19.0212 30.3158 19.035 30.5244 19.1025C30.7329 19.1677 30.9165 19.2985 31.0763 19.4945C31.3391 19.8211 31.4239 20.1762 31.3283 20.5609C31.2349 20.9434 30.9644 21.3059 30.5156 21.6484C30.0724 21.9887 29.6379 22.1615 29.212 22.1667C28.7894 22.1731 28.4168 21.9855 28.0951 21.6062L28.8426 21.0371C29.0013 21.2057 29.1838 21.2847 29.3901 21.2732C29.5955 21.2626 29.7998 21.1794 30.0029 21.0245C30.1963 20.8759 30.3179 20.7157 30.3679 20.544C30.42 20.3732 30.395 20.2215 30.294 20.0887C30.1919 19.9707 30.0615 19.9201 29.9029 19.937C29.7433 19.9539 29.5444 20.0171 29.3076 20.1267L28.8296 20.329C28.4645 20.4955 28.1289 20.5692 27.8214 20.5524C27.515 20.5335 27.2554 20.3912 27.0435 20.1267C26.8698 19.9139 26.7774 19.6799 26.7654 19.427C26.7545 19.172 26.8165 18.9201 26.9523 18.6725C27.0891 18.4227 27.2913 18.1951 27.5606 17.9896C27.8301 17.7821 28.1039 17.6461 28.382 17.5807C28.6601 17.5134 28.9209 17.5176 29.1641 17.5935C29.4075 17.6672 29.6161 17.8074 29.79 18.015L29.0513 18.5797Z" fill="#4547F1"/>
<path d="M30.547 15.9839L33.1456 19.7395L32.3243 20.2706L29.7256 16.515L30.547 15.9839Z" fill="#4547F1"/>
<path d="M18.1021 62.2825L18.8218 62.0869L19.737 65.462L19.0173 65.6577L18.6763 64.4008L15.29 65.3205L15.0571 64.459L18.4433 63.5394L18.1021 62.2825Z" fill="#4547F1"/>
<path d="M15.8818 67.2896L19.8628 65.7788L20.878 68.4631L20.1791 68.7294L19.4802 66.8858L18.5358 67.2437L19.1807 68.9458L18.486 69.2081L17.8412 67.5059L16.8886 67.8679L17.5875 69.7157L16.8968 69.9779L15.8818 67.2896Z" fill="#4547F1"/>
<path d="M17.2476 70.7989L21.0579 68.9053L21.4573 69.7085L19.7767 70.545L19.8017 70.5992L22.1646 71.1318L22.6429 72.0973L20.2343 71.5313L18.8408 74.0075L18.3623 73.0462L19.4066 71.2191L18.7326 71.0653L17.6468 71.602L17.2476 70.7989Z" fill="#4547F1"/>
<path d="M24.6695 75.2727L21.0836 77.5657L20.6635 76.9124L21.9281 73.9119L21.9074 73.8827L19.6485 75.3269L19.166 74.5694L22.7518 72.2764L23.1761 72.9422L21.9074 75.9344L21.9281 75.9635L24.187 74.5195L24.6695 75.2727Z" fill="#4547F1"/>
<path d="M25.5689 76.4186L22.1701 78.9822L21.6294 78.2622L25.028 75.6987L25.5689 76.4186Z" fill="#4547F1"/>
<path d="M22.688 79.6877L25.887 76.8828L26.4776 77.5569L25.0675 78.7929L25.1049 78.8387L27.526 78.7556L28.2331 79.5671L25.7621 79.6336L25.0466 82.3844L24.3395 81.5771L24.8844 79.5421L24.1897 79.5628L23.2787 80.3619L22.688 79.6877Z" fill="#4547F1"/>
<path d="M27.669 84.8134L26.5293 83.8313L29.2998 80.5977L30.452 81.5882C30.7765 81.8659 31.0012 82.1708 31.1259 82.5037C31.2508 82.8365 31.2725 83.1779 31.1925 83.5274C31.1114 83.8739 30.9273 84.2152 30.6392 84.5512C30.3502 84.8893 30.0382 85.1234 29.7033 85.2545C29.3704 85.3877 29.0304 85.4168 28.684 85.3419C28.3367 85.269 27.9987 85.0933 27.669 84.8134ZM27.7107 83.8354L28.1433 84.2058C28.448 84.4659 28.7485 84.5814 29.0459 84.5512C29.3455 84.52 29.6492 84.3244 29.957 83.9644C30.2669 83.6065 30.4125 83.2798 30.3938 82.9823C30.3772 82.6858 30.2159 82.4069 29.9113 82.1458L29.4787 81.7754L27.7107 83.8354Z" fill="#4547F1"/>
<path d="M30.5483 87.1074L29.7495 86.5664L33.3563 83.8696L34.3171 84.523L33.1399 88.8678L32.3411 88.3268L32.624 87.3445L31.3553 86.4831L30.5483 87.1074ZM31.9376 86.0336L32.8363 86.6413L33.3063 85.014L33.2813 84.9933L31.9376 86.0336Z" fill="#4547F1"/>
<path d="M38.8908 87.118L36.9066 90.8843L36.2202 90.5223L35.8333 87.2887L35.8042 87.272L34.5562 89.6442L33.7617 89.2238L35.746 85.4575L36.4448 85.8279L36.8192 89.0531L36.8525 89.074L38.1005 86.7019L38.8908 87.118Z" fill="#4547F1"/>
<path d="M39.0728 91.8188L40.5079 87.811L42.1095 88.3854C42.5525 88.5435 42.851 88.7589 43.0039 89.0304C43.1558 89.303 43.1786 89.588 43.0704 89.8878C42.9873 90.1239 42.8499 90.2904 42.6586 90.3872C42.4693 90.4849 42.2634 90.5193 42.0388 90.4912L42.0263 90.5287C42.1729 90.5932 42.2988 90.6888 42.4049 90.8158C42.5099 90.9407 42.5795 91.0904 42.6129 91.2653C42.6481 91.4379 42.6305 91.622 42.5588 91.8188C42.4839 92.032 42.3633 92.2027 42.1969 92.3307C42.0304 92.4607 41.8276 92.5367 41.5895 92.5595C41.3534 92.5814 41.084 92.5387 40.7825 92.4305L39.0728 91.8188ZM40.1668 91.4275L40.8574 91.673C41.0955 91.7584 41.2838 91.775 41.4231 91.723C41.5645 91.671 41.6613 91.5712 41.7143 91.4234C41.7746 91.2569 41.7643 91.1009 41.681 90.9532C41.5999 90.8033 41.4585 90.693 41.2568 90.6202L40.5454 90.3663L40.1668 91.4275ZM40.7534 89.792L41.3815 90.0168C41.5563 90.0782 41.7164 90.0854 41.864 90.0375C42.0106 89.9877 42.1115 89.8835 42.1678 89.7254C42.2198 89.5818 42.2104 89.4465 42.1386 89.3218C42.0658 89.1948 41.9369 89.097 41.7518 89.0304L41.1069 88.8015L40.7534 89.792Z" fill="#4547F1"/>
<path d="M44.8652 89.2404L43.7212 93.3396L42.856 93.0983L44 88.999L44.8652 89.2404Z" fill="#4547F1"/>
<path d="M47.4279 91.0773C47.4445 90.9088 47.3988 90.7651 47.2905 90.6486C47.1845 90.53 47.0285 90.4489 46.8205 90.4073C46.601 90.3635 46.4253 90.3739 46.2921 90.4405C46.1611 90.505 46.0821 90.6049 46.055 90.7401C46.0218 90.8879 46.0613 91.0138 46.1756 91.1189C46.2921 91.2219 46.4356 91.3103 46.6083 91.3853L46.9661 91.5559C47.1959 91.6589 47.3925 91.7806 47.5568 91.922C47.7231 92.0635 47.8438 92.228 47.9186 92.4131C47.9935 92.5994 48.0071 92.8075 47.9603 93.0374C47.8823 93.4181 47.6785 93.6908 47.3488 93.8573C47.0181 94.0258 46.6 94.0591 46.0925 93.9571C45.585 93.851 45.2033 93.6533 44.9485 93.362C44.6958 93.0706 44.6095 92.6983 44.6906 92.2425L45.5434 92.4173C45.5184 92.6316 45.5684 92.8064 45.6931 92.9416C45.82 93.0749 45.9989 93.1654 46.2298 93.2121C46.4544 93.26 46.6426 93.2496 46.7955 93.183C46.9474 93.1144 47.042 93.003 47.0784 92.8501C47.1034 92.7086 47.0618 92.5879 46.9536 92.488C46.8475 92.3881 46.6874 92.2883 46.471 92.1884L46.0426 91.9804C45.7066 91.8253 45.456 91.6349 45.2896 91.4101C45.1233 91.1834 45.0713 90.9181 45.1358 90.6153C45.1856 90.3604 45.298 90.1524 45.4726 89.991C45.6495 89.8309 45.8689 89.7226 46.1299 89.6665C46.3899 89.6081 46.6718 89.6103 46.9744 89.6706C47.2843 89.7351 47.5443 89.8434 47.7523 89.9953C47.9624 90.1481 48.1121 90.3324 48.2015 90.5488C48.2931 90.7651 48.316 90.9981 48.2723 91.2479L47.4279 91.0773Z" fill="#4547F1"/>
<path d="M52.4561 90.4579L52.0484 94.6946L51.2747 94.6196L49.6939 91.7731L49.6606 91.769L49.4027 94.4364L48.5083 94.3533L48.9159 90.1167L49.7022 90.1916L51.2704 93.0341L51.3079 93.0382L51.5658 90.3706L52.4561 90.4579Z" fill="#4547F1"/>
<path d="M53.9109 90.4531L53.8277 94.7105L52.9292 94.6938L53.0123 90.4365L53.9109 90.4531Z" fill="#4547F1"/>
<path d="M56.8468 91.591C56.8218 91.4224 56.7428 91.2945 56.6097 91.2081C56.4786 91.1227 56.3071 91.0854 56.0938 91.0957C55.8713 91.1071 55.7048 91.1612 55.5946 91.258C55.4833 91.3527 55.4324 91.4692 55.4407 91.6076C55.4428 91.7574 55.5124 91.8687 55.6487 91.9405C55.7839 92.0134 55.9451 92.0654 56.1312 92.0987L56.5181 92.1695C56.7677 92.2141 56.9903 92.2839 57.1878 92.3775C57.3844 92.4722 57.5424 92.6001 57.6621 92.7604C57.7838 92.9216 57.8503 93.1182 57.8618 93.3514C57.8784 93.7405 57.7473 94.0577 57.4707 94.3044C57.1931 94.5489 56.7948 94.6851 56.2768 94.7122C55.7631 94.7371 55.3461 94.6415 55.0247 94.425C54.7054 94.2066 54.5276 93.8664 54.4922 93.4055L55.3617 93.3596C55.3887 93.574 55.4802 93.73 55.6362 93.8299C55.7943 93.9277 55.9898 93.9704 56.2228 93.959C56.4526 93.9485 56.6326 93.8914 56.7636 93.7884C56.8967 93.6833 56.9601 93.5531 56.9549 93.3971C56.9434 93.2535 56.8728 93.1464 56.7428 93.0766C56.6148 93.008 56.4349 92.9519 56.2019 92.9102L55.7361 92.8145C55.3721 92.7479 55.0808 92.6272 54.8624 92.4524C54.6462 92.2755 54.5307 92.03 54.5172 91.7159C54.5027 91.4577 54.5598 91.2289 54.6878 91.0291C54.8178 90.8294 55.0008 90.6691 55.2368 90.5464C55.4751 90.4246 55.7486 90.357 56.0563 90.3425C56.3726 90.3259 56.6512 90.3664 56.8926 90.4631C57.1338 90.5579 57.3252 90.6982 57.4666 90.8835C57.6101 91.0697 57.6912 91.2902 57.7078 91.5452L56.8468 91.591Z" fill="#4547F1"/>
<path d="M61.8194 90.8947C61.7716 90.7314 61.678 90.6159 61.5365 90.5493C61.3951 90.4807 61.2184 90.465 61.0083 90.5035C60.7888 90.5451 60.6308 90.6221 60.534 90.7324C60.4363 90.8438 60.4009 90.9675 60.4259 91.1028C60.4508 91.2505 60.535 91.3504 60.6796 91.4024C60.8231 91.4555 60.9895 91.4856 61.1788 91.494L61.5699 91.5106C61.8246 91.5189 62.0545 91.5585 62.2604 91.6271C62.4684 91.6969 62.641 91.804 62.7804 91.9477C62.9218 92.0892 63.0144 92.2753 63.0591 92.5053C63.1278 92.8882 63.0424 93.22 62.8011 93.4999C62.5599 93.7808 62.1834 93.968 61.6739 94.0618C61.1664 94.1595 60.7389 94.122 60.3926 93.9494C60.0453 93.7745 59.8248 93.4624 59.7311 93.013L60.5839 92.8507C60.639 93.0567 60.7514 93.1982 60.9209 93.2752C61.0894 93.35 61.289 93.3668 61.5199 93.3251C61.7466 93.2835 61.9171 93.2024 62.0316 93.0795C62.148 92.9579 62.1939 92.8205 62.1689 92.6675C62.1376 92.526 62.0534 92.4304 61.9151 92.3804C61.7789 92.3284 61.5928 92.2951 61.3576 92.2805L60.8793 92.2555C60.5101 92.2369 60.2064 92.1546 59.9683 92.01C59.7301 91.8664 59.5835 91.6396 59.5273 91.3316C59.4774 91.0768 59.5044 90.8427 59.6064 90.6284C59.7093 90.4119 59.8684 90.2289 60.0848 90.079C60.3031 89.9271 60.5653 89.821 60.871 89.7628C61.1809 89.7045 61.4628 89.7076 61.7154 89.771C61.9671 89.8324 62.1751 89.9459 62.3394 90.1123C62.5026 90.2766 62.6109 90.4848 62.6639 90.7365L61.8194 90.8947Z" fill="#4547F1"/>
<path d="M64.0351 93.5052L62.8496 89.4144L65.6035 88.6152L65.8115 89.3311L63.9229 89.8805L64.2057 90.8542L65.9529 90.3465L66.1567 91.0624L64.4096 91.5701L64.6925 92.5439L66.5894 91.9946L66.7974 92.7062L64.0351 93.5052Z" fill="#4547F1"/>
<path d="M67.6351 92.422L66.0669 88.4644L67.6228 87.8484C67.9243 87.7267 68.203 87.6819 68.4589 87.7153C68.7168 87.7465 68.9394 87.8402 69.1286 87.9983C69.32 88.1543 69.4676 88.3634 69.5738 88.6267C69.6756 88.8878 69.711 89.1417 69.6778 89.3883C69.6444 89.6359 69.5425 89.8574 69.374 90.0542C69.2045 90.2487 68.9685 90.4058 68.6669 90.5244L67.9596 90.8074L68.4671 92.0933L67.6351 92.422ZM67.6934 90.1415L68.2634 89.9127C68.5046 89.819 68.6585 89.6868 68.7251 89.5173C68.7938 89.3455 68.7896 89.1625 68.7126 88.9679C68.6346 88.7713 68.5129 88.637 68.3465 88.5643C68.1823 88.4893 67.9784 88.5008 67.735 88.5975L67.1693 88.8223L67.6934 90.1415Z" fill="#4547F1"/>
<path d="M71.2974 90.9139L69.3589 87.1227L71.9089 85.8159L72.2459 86.4818L70.4945 87.3807L70.9563 88.2795L72.5745 87.4514L72.9156 88.1132L71.2974 88.9413L71.7591 89.8485L73.5188 88.9497L73.8558 89.6072L71.2974 90.9139Z" fill="#4547F1"/>
<path d="M75.9042 88.353L74.6395 89.1729L72.3267 85.598L73.5995 84.7698C73.9604 84.5368 74.3172 84.4099 74.6687 84.387C75.0202 84.362 75.3519 84.4369 75.6629 84.6116C75.9759 84.7844 76.2537 85.0559 76.4949 85.4274C76.7362 85.8019 76.8714 86.1681 76.9025 86.526C76.9327 86.8839 76.863 87.22 76.6945 87.5331C76.5282 87.8443 76.264 88.1179 75.9042 88.353ZM74.9724 88.0368L75.4508 87.7288C75.7888 87.5103 75.9853 87.2533 76.0414 86.9589C76.0997 86.6655 75.9999 86.318 75.7419 85.9184C75.484 85.522 75.2094 85.29 74.9183 85.2234C74.6292 85.1548 74.3182 85.2276 73.9823 85.444L73.4998 85.7561L74.9724 88.0368Z" fill="#4547F1"/>
<path d="M78.9194 86.2415L78.1747 86.8532L76.6147 82.6292L77.5091 81.8926L81.3404 84.2563L80.5957 84.8681L79.7347 84.3188L78.5491 85.2926L78.9194 86.2415ZM78.2787 84.6018L79.1149 83.9151L77.6921 83.0037L77.6672 83.0245L78.2787 84.6018Z" fill="#4547F1"/>
<path d="M79.7266 79.9525L80.4588 79.1243L83.3748 80.1314L83.4082 80.094L82.0437 77.3265L82.7717 76.4941L85.9623 79.3074L85.3882 79.9608L83.3083 78.1296L83.2833 78.1588L84.6187 80.8014L84.2277 81.2468L81.4322 80.248L81.4113 80.2729L83.4954 82.1124L82.9173 82.7658L79.7266 79.9525Z" fill="#4547F1"/>
<path d="M86.9989 74.0425C87.3836 74.3036 87.6624 74.5981 87.835 74.9247C88.0066 75.2525 88.0784 75.5886 88.0512 75.9318C88.0264 76.2762 87.9077 76.605 87.6977 76.9182C87.4866 77.2345 87.2255 77.4696 86.9156 77.6215C86.6047 77.7745 86.2667 77.8317 85.9006 77.7921C85.5325 77.7536 85.156 77.6048 84.7732 77.3468C84.3885 77.0867 84.1097 76.7933 83.9371 76.4687C83.7655 76.1441 83.6917 75.8101 83.7166 75.4657C83.7416 75.1193 83.8602 74.7875 84.0702 74.4711C84.2814 74.158 84.5424 73.926 84.8524 73.7761C85.1632 73.6242 85.5034 73.566 85.8715 73.6013C86.2376 73.6346 86.613 73.7823 86.9989 74.0425ZM86.4871 74.8C86.1127 74.5481 85.7737 74.4368 85.468 74.467C85.1601 74.4982 84.9147 74.6491 84.7317 74.9206C84.5486 75.1932 84.5019 75.4772 84.5902 75.7737C84.6766 76.0682 84.9064 76.3418 85.2807 76.5936C85.6552 76.8465 85.9962 76.9577 86.3041 76.9265C86.6089 76.8963 86.8532 76.7455 87.0362 76.4728C87.2194 76.2013 87.2661 75.9183 87.1777 75.624C87.0914 75.3273 86.8615 75.0527 86.4871 74.8Z" fill="#4547F1"/>
<path d="M86.0032 72.99L85.3418 72.6446L86.9642 69.5483L87.6255 69.8937L87.0223 71.0466L90.1298 72.6778L89.7179 73.4686L86.6105 71.8372L86.0032 72.99Z" fill="#4547F1"/>
<path d="M90.5112 66.4044C90.9438 66.574 91.2787 66.7998 91.5178 67.0828C91.7592 67.3637 91.9027 67.6738 91.9504 68.015C92.0004 68.3563 91.9567 68.7038 91.8215 69.0554C91.6822 69.4082 91.4783 69.6943 91.21 69.9127C90.9407 70.1292 90.6234 70.2602 90.2574 70.3039C89.8893 70.3455 89.4899 70.2832 89.0593 70.1167C88.6267 69.9449 88.2918 69.7192 88.0527 69.4383C87.8145 69.1584 87.6699 68.8473 87.62 68.506C87.568 68.1628 87.6107 67.8142 87.7489 67.4615C87.8852 67.1098 88.089 66.8248 88.3604 66.6084C88.6298 66.3919 88.947 66.2619 89.313 66.2172C89.6792 66.1704 90.0785 66.2328 90.5112 66.4044ZM90.1783 67.2575C89.7572 67.0912 89.4004 67.0568 89.1093 67.1535C88.818 67.2482 88.6132 67.448 88.4935 67.7528C88.375 68.0587 88.3895 68.3459 88.5393 68.6143C88.687 68.8838 88.9709 69.1012 89.3922 69.2677C89.8113 69.432 90.1679 69.4653 90.4612 69.3675C90.7555 69.2708 90.9614 69.07 91.081 68.7642C91.1997 68.4593 91.1829 68.1732 91.0312 67.9068C90.8814 67.6384 90.5974 67.4219 90.1783 67.2575Z" fill="#4547F1"/>
<path d="M92.7386 66.3492L88.6328 65.238L89.0696 63.6192C89.1974 63.151 89.4179 62.8202 89.7309 62.6287C90.0419 62.4373 90.4007 62.3978 90.8084 62.508C91.0892 62.5829 91.3118 62.7109 91.4782 62.8909C91.6446 63.0719 91.7476 63.2925 91.7859 63.5525L93.6163 63.1114L93.3584 64.0687L91.6944 64.4515L91.5239 65.0883L92.9757 65.4835L92.7386 66.3492ZM90.8251 64.9009L90.9832 64.31C91.1162 63.8169 90.9779 63.514 90.5672 63.4028C90.1459 63.2894 89.8683 63.4808 89.7352 63.977L89.5771 64.5639L90.8251 64.9009Z" fill="#4547F1"/>
<path d="M74.207 18.966L77.1015 15.1914L77.9055 15.8039L76.6278 17.4674L76.6757 17.5022L79.3093 16.881L80.2654 17.6152L77.5665 18.2363L77.3884 21.4027L76.4323 20.6687L76.5887 18.3275L75.8324 18.5055L75.011 19.5784L74.207 18.966Z" fill="#4547F1"/>
<path d="M78.3022 22.2511L81.6704 18.8936L83.9346 21.1652L83.348 21.7516L81.7964 20.1966L80.9924 20.9958L82.4266 22.4336L81.8399 23.0199L80.4056 21.5822L79.6016 22.3814L81.1619 23.9407L80.5751 24.5271L78.3022 22.2511Z" fill="#4547F1"/>
<path d="M82.0889 26.3159L81.4414 25.4559L86.2264 23.8965L87.0087 24.9302L84.1968 29.1045L83.5493 28.2444L84.2055 27.3105L83.1712 25.938L82.0889 26.3159ZM83.9448 25.673L84.6749 26.6374L85.7614 25.0866L85.7353 25.0519L83.9448 25.673Z" fill="#4547F1"/>
<path d="M84.8755 30.1925L89.0565 27.9209L89.5389 28.807L87.8135 29.7451L88.787 31.5348L90.5124 30.5965L90.9947 31.4783L86.8139 33.7499L86.3315 32.8681L88.0569 31.93L87.0834 30.1404L85.358 31.0786L84.8755 30.1925Z" fill="#4547F1"/>
<path d="M87.4341 35.194L91.8801 33.5L92.2408 34.4425L88.5683 35.8411L89.2942 37.7436L88.5206 38.039L87.4341 35.194Z" fill="#4547F1"/>
<path d="M93.7911 39.1703L89.2016 40.4343L88.9321 39.4657L93.5216 38.2017L93.7911 39.1703Z" fill="#4547F1"/>
<path d="M89.7564 42.8034L89.5869 41.7437L94.5458 42.6124L94.75 43.8894L90.3083 46.2565L90.1388 45.1924L91.1558 44.6712L90.8864 42.9772L89.7564 42.8034ZM91.699 43.1119L91.8903 44.302L93.5722 43.4377L93.5635 43.3985L91.699 43.1119Z" fill="#4547F1"/>
<path d="M95.1998 51.4674L90.4408 51.5195L90.4322 50.6508L93.4048 48.5485V48.5138L90.4105 48.5485L90.3975 47.5409L95.1563 47.4888L95.1651 48.3705L92.1967 50.4554V50.4945L95.1911 50.464L95.1998 51.4674Z" fill="#4547F1"/>
<path fill-rule="evenodd" clip-rule="evenodd" d="M49.6491 35.5352H57.3064V37.1205H56.9104H56.382H50.5732H50.0447H49.6491V35.5352ZM48.9885 40.2908H48.692C48.9033 40.8321 49.43 41.2156 50.0461 41.2156H56.9096C57.5257 41.2156 58.0522 40.8321 58.2636 40.2908H57.9666H57.961H56.9104H56.382H50.5732H50.0447H48.9942H48.9885ZM46.876 38.7057C46.876 39.4665 47.4117 40.1022 48.1264 40.2556C48.1295 40.2673 48.1326 40.2791 48.1357 40.2908C48.367 41.1287 49.1347 41.744 50.0461 41.744H50.2061V50.0662V50.2222L50.3424 50.2973L50.3425 50.2975H50.3426V50.2976L50.3431 50.2978L50.3477 50.3005C50.3521 50.303 50.359 50.3068 50.368 50.3122C50.386 50.323 50.4125 50.3392 50.4445 50.3601C50.5091 50.4022 50.5932 50.4616 50.6749 50.5318C50.7579 50.6032 50.8299 50.6785 50.8776 50.7511C50.9261 50.8251 50.9356 50.8743 50.9332 50.903C50.9322 50.9153 50.9311 50.9243 50.9047 50.9458C50.8668 50.9766 50.8115 51.0038 50.716 51.0483L50.7064 51.0528C50.6262 51.09 50.5107 51.1437 50.4166 51.2227C50.3061 51.3155 50.2146 51.451 50.2064 51.64C50.1979 51.8371 50.2832 51.9841 50.394 52.087C50.4882 52.1745 50.6079 52.2357 50.6911 52.2785L50.6997 52.2828C50.7989 52.3337 50.8589 52.3657 50.9 52.4015C50.9301 52.4277 50.932 52.4398 50.9325 52.4546C50.9335 52.4775 50.9297 52.4906 50.9047 52.516C50.8682 52.5528 50.8112 52.5883 50.7139 52.6446L50.6997 52.6527C50.6172 52.7002 50.503 52.766 50.4109 52.8537C50.3036 52.9557 50.2134 53.0985 50.2064 53.2931C50.1989 53.4981 50.2875 53.6518 50.3964 53.7622C50.4897 53.8568 50.6085 53.9296 50.695 53.9825L50.7096 53.9915C50.8119 54.0541 50.8724 54.094 50.9099 54.1346C50.9351 54.1618 50.9369 54.1737 50.9342 54.196C50.9297 54.2328 50.9175 54.2603 50.7255 54.3555C50.7181 54.3591 50.7101 54.3631 50.7017 54.3671L50.7009 54.3675L50.7007 54.3676C50.5532 54.4395 50.2715 54.577 50.2105 54.9058C50.1696 55.1272 50.2507 55.303 50.3616 55.4312C50.4566 55.541 50.5849 55.6285 50.6794 55.693L50.693 55.7023C50.8045 55.7785 50.874 55.8287 50.9159 55.8787C50.945 55.9136 50.9449 55.927 50.9394 55.9505L50.9384 55.9545C50.9325 55.9813 50.93 55.9922 50.7532 56.0618C50.6762 56.0921 50.5634 56.1375 50.4612 56.22C50.3516 56.3085 50.2644 56.4305 50.2162 56.5987C50.0552 57.1627 50.4105 57.8206 51.0405 57.9148C51.1752 58.3283 51.4906 58.6602 51.8932 58.8177V58.917V58.9175V58.9191V58.9217V58.9252V58.9487V59.0346V59.3133V59.9077C51.8932 60.0097 51.9334 60.0947 51.9686 60.1528C52.0056 60.2135 52.0529 60.2696 52.099 60.3187C52.1796 60.4046 52.2825 60.4953 52.3759 60.5777C52.3832 60.5842 52.3905 60.5906 52.3976 60.597C52.4024 60.6011 52.4069 60.6052 52.4115 60.6092C52.5204 60.7056 52.6141 60.7912 52.681 60.8691C52.7279 60.9238 52.7437 60.955 52.749 60.9662C52.7474 60.9707 52.7447 60.977 52.7409 60.9851C52.7274 61.013 52.7045 61.0498 52.6695 61.0971C52.6041 61.1851 52.5172 61.282 52.4175 61.3931L52.3899 61.424C52.284 61.5421 52.1655 61.6758 52.0741 61.8083C51.9882 61.933 51.8932 62.1013 51.8932 62.2856V62.2878V62.2902V62.2926V62.2948V62.2972V62.2996V62.302V62.3043V62.3067V62.3091V62.3116V62.314V62.3163V62.3188V62.3212V62.3236V62.3261V62.3286V62.331V62.3335V62.336V62.3383V62.3408V62.3433V62.3458V62.3483V62.3508V62.3533V62.3558V62.3585V62.361V62.3635V62.366V62.3686V62.3711V62.3737V62.3762V62.3788V62.3813V62.384V62.3866V62.3892V62.3917V62.3943V62.397V62.3996V62.4022V62.4048V62.4075V62.4101V62.4127V62.4155V62.4181V62.4207V62.4233V62.4261V62.4287V62.4315V62.4341V62.4368V62.4395V62.4422V62.4448V62.4476V62.4503V62.453V62.4557V62.4585V62.4612V62.464V62.4667V62.4693V62.4721V62.4748V62.4776V62.4805V62.4832V62.486V62.4887V62.4915V62.4942V62.4971V62.4998V62.5026V62.5053V62.5082V62.511V62.5138V62.5166V62.5195V62.5222V62.5251V62.5278V62.5307V62.5335V62.5363V62.5392V62.542V62.5448V62.5477V62.5505V62.5533V62.5562V62.5591V62.562V62.5648V62.5676V62.5705V62.5733V62.5762V62.5791V62.582V62.5848V62.5877V62.5906V62.5935V62.5963V62.5992V62.6021V62.605V62.608V62.6108V62.6137V62.6166V62.6195V62.6223V62.6253V62.6282V62.6311V62.634V62.637V62.6398V62.6427V62.6456V62.6486V62.6515V62.6543V62.6573V62.6602V62.6631V62.6661V62.669V62.6718V62.6748V62.6777V62.6806V62.6836V62.6865V62.6895V62.6923V62.6952V62.6982V62.7011V62.7041V62.707V62.7098V62.7128V62.7157V62.7187V62.7216V62.7245V62.7275V62.7303V62.7333V62.7362V62.7391V62.7421V62.745V62.748V62.7508V62.7537V62.7567V62.7596V62.7626V62.7655V62.7683V62.7713V62.7742V62.7771V62.7801V62.783V62.7858V62.7888V62.7917V62.7946V62.7976V62.8005V62.8033V62.8062V62.8092V62.8121V62.815V62.8178V62.8208V62.8237V62.8266V62.8295V62.8323V62.8352V62.8382V62.8411V62.844V62.8468V62.8497V62.8526V62.8555V62.8583V62.8612V62.8641V62.867V62.8698V62.8727V62.8756V62.8783V62.8812V62.8841V62.887V62.8898V62.8926V62.8955V62.8983V62.9012V62.904V62.9068V62.9097V62.9125V62.9153V62.9181V62.921V62.9237V62.9266V62.9293V62.9322V62.935V62.9377V62.9406V62.9433V62.9461V62.949V62.9517V62.9545V62.9572V62.96V62.9627V62.9656V62.9683V62.9711V62.9738V62.9765V62.9792V62.982V62.9847V62.9875V62.9902V62.9928V62.9956V62.9983V63.001V63.0037V63.0063V63.0091V63.0117V63.0145V63.0171V63.0198V63.0225V63.0251V63.0277V63.0305V63.0331V63.0357V63.0383V63.041V63.0436V63.0462V63.0488V63.0515V63.054V63.0566V63.0592V63.0618V63.0643V63.067V63.0695V63.0721V63.0746V63.0772V63.0797V63.0822V63.0847V63.0873V63.0898V63.0923V63.0948V63.0973V63.0998V63.1023V63.1048V63.1072V63.1097V63.1122V63.1146V63.1171V63.1196V63.122V63.1243V63.1268V63.1292V63.1316V63.1341V63.1365V63.1388V63.1412V63.1436V63.146V63.1482V63.1506V63.153V63.1553V63.1576V63.16V63.1622V63.1646V63.1668V63.1691V63.1715V63.1737V63.176V63.1782V63.1805V63.1827V63.185V63.1872V63.1893V63.1916V63.1937V63.196V63.1981V63.2003V63.2025V63.2046V63.2068V63.209V63.2111V63.2132V63.2153V63.2175V63.2195V63.2216V63.2237V63.2257V63.2278V63.2298V63.2318V63.234V63.236V63.238V63.24V63.242V63.244V63.246V63.2478V63.2498V63.2518V63.2537V63.2557V63.2576V63.2595V63.2615V63.2633V63.2652V63.2671V63.269V63.2707V63.2726V63.2745V63.2762V63.2781V63.2798V63.2816V63.2835V63.2852V63.287V63.2887V63.2905V63.2922V63.2938V63.2956V63.2972V63.299V63.3006V63.3023V63.304V63.3056V63.3072V63.3088V63.3105V63.312V63.3136V63.3152V63.3167V63.3183V63.3198V63.3213V63.3228V63.3243V63.3258V63.3273V63.3288V63.3302V63.3317V63.3331V63.3346V63.336V63.3373V63.3387V63.3401V63.3415V63.3428V63.3442V63.3455V63.3468V63.3481V63.3493V63.3507V63.352V63.3532V63.3545V63.3556V63.3568V63.3581V63.3592V63.3603V63.3616V63.3627V63.3638V63.365V63.3661V63.3672V63.3682V63.3693V63.3703V63.3715V63.3725V63.3735V63.3745V63.3755V63.3765V63.3773V63.3783V63.3792V63.3802V63.3811V63.382V63.3828V63.3837V63.3846V63.3853V63.3862V63.3871V63.3878V63.3886V63.3893V63.3901V63.3908V63.3916V63.3923V63.393V63.3937V63.3943V63.395V63.3956V63.3962V63.3968V63.3975V63.398V63.3986V63.3991V63.3996V63.4001V63.4006V63.4011V63.4016V63.4021V63.4025V63.403V63.4033V63.4037V63.4041V63.4045V63.4048V63.4051V63.4055V63.4057V63.4061V63.4063V63.4066V63.4068V63.407V63.4072V63.4075V63.4076V63.4077V63.408V63.4081V63.4082V63.4083V63.6726H52.1575H54.8641H55.1284V63.4083V63.4082V63.4081V63.408V63.4078V63.4075V63.4073V63.4071V63.407V63.4067V63.4065V63.4062V63.406V63.4057V63.4055V63.4051V63.4048V63.4045V63.4041V63.4038V63.4035V63.403V63.4026V63.4022V63.4017V63.4013V63.4008V63.4005V63.4V63.3995V63.399V63.3983V63.3978V63.3973V63.3967V63.3961V63.3956V63.395V63.3943V63.3937V63.3931V63.3923V63.3917V63.391V63.3903V63.3896V63.3888V63.3881V63.3873V63.3866V63.3858V63.3851V63.3842V63.3835V63.3826V63.3817V63.3808V63.38V63.3791V63.3782V63.3773V63.3763V63.3755V63.3745V63.3736V63.3726V63.3716V63.3706V63.3696V63.3686V63.3676V63.3665V63.3655V63.3643V63.3633V63.3622V63.3611V63.36V63.3588V63.3577V63.3566V63.3555V63.3542V63.3531V63.3518V63.3506V63.3495V63.3482V63.347V63.3457V63.3445V63.3431V63.3418V63.3406V63.3392V63.3378V63.3366V63.3352V63.3338V63.3325V63.3311V63.3297V63.3283V63.3268V63.3255V63.324V63.3226V63.3211V63.3196V63.3182V63.3167V63.3152V63.3137V63.3121V63.3106V63.3091V63.3075V63.306V63.3043V63.3028V63.3012V63.2996V63.298V63.2963V63.2947V63.2931V63.2915V63.2897V63.2881V63.2863V63.2847V63.283V63.2812V63.2796V63.2778V63.2761V63.2743V63.2726V63.2707V63.269V63.2672V63.2653V63.2636V63.2617V63.26V63.2581V63.2562V63.2543V63.2525V63.2506V63.2487V63.2468V63.245V63.2431V63.2411V63.2392V63.2372V63.2353V63.2333V63.2313V63.2293V63.2273V63.2253V63.2233V63.2213V63.2193V63.2173V63.2153V63.2132V63.2112V63.2091V63.2071V63.205V63.203V63.2008V63.1987V63.1966V63.1945V63.1923V63.1902V63.1881V63.186V63.1837V63.1816V63.1795V63.1772V63.1751V63.1728V63.1706V63.1685V63.1662V63.164V63.1617V63.1595V63.1572V63.155V63.1527V63.1505V63.1481V63.1458V63.1436V63.1412V63.139V63.1366V63.1343V63.132V63.1296V63.1273V63.125V63.1226V63.1202V63.1178V63.1155V63.1131V63.1107V63.1083V63.1058V63.1035V63.1011V63.0986V63.0962V63.0937V63.0913V63.0888V63.0863V63.084V63.0815V63.079V63.0765V63.074V63.0715V63.069V63.0665V63.064V63.0615V63.059V63.0563V63.0538V63.0513V63.0487V63.0462V63.0437V63.0411V63.0385V63.036V63.0333V63.0307V63.0282V63.0256V63.023V63.0203V63.0177V63.0151V63.0125V63.0098V63.0072V63.0046V63.002V62.9993V62.9966V62.994V62.9913V62.9886V62.986V62.9833V62.9806V62.978V62.9752V62.9725V62.9698V62.9671V62.9643V62.9617V62.959V62.9562V62.9535V62.9507V62.948V62.9453V62.9426V62.9398V62.9371V62.9342V62.9315V62.9287V62.926V62.9232V62.9205V62.9176V62.9148V62.9121V62.9092V62.9065V62.9036V62.9008V62.8981V62.8952V62.8923V62.8896V62.8867V62.884V62.8811V62.8782V62.8755V62.8726V62.8697V62.8668V62.8641V62.8612V62.8583V62.8555V62.8526V62.8497V62.8468V62.844V62.8411V62.8382V62.8353V62.8325V62.8296V62.8267V62.8238V62.821V62.8181V62.8152V62.8122V62.8093V62.8065V62.8036V62.8006V62.7977V62.7948V62.7918V62.789V62.7861V62.7831V62.7802V62.7772V62.7743V62.7715V62.7685V62.7656V62.7626V62.7597V62.7567V62.7538V62.7508V62.748V62.745V62.742V62.7391V62.7361V62.7332V62.7302V62.7272V62.7243V62.7213V62.7183V62.7155V62.7125V62.7095V62.7066V62.7036V62.7006V62.6976V62.6947V62.6917V62.6887V62.6858V62.6828V62.6798V62.6768V62.6738V62.671V62.668V62.665V62.662V62.6591V62.6561V62.6531V62.6501V62.6471V62.6441V62.6412V62.6382V62.6352V62.6322V62.6292V62.6263V62.6233V62.6203V62.6173V62.6143V62.6115V62.6085V62.6055V62.6025V62.5995V62.5965V62.5936V62.5906V62.5876V62.5846V62.5817V62.5787V62.5757V62.5727V62.5697V62.5668V62.5638V62.5608V62.5578V62.555V62.552V62.549V62.5461V62.5431V62.5401V62.5372V62.5342V62.5312V62.5283V62.5253V62.5223V62.5195V62.5165V62.5135V62.5106V62.5076V62.5047V62.5017V62.4988V62.4958V62.493V62.49V62.4871V62.4841V62.4812V62.4782V62.4753V62.4723V62.4695V62.4666V62.4636V62.4607V62.4578V62.4548V62.452V62.4491V62.4462V62.4432V62.4403V62.4375V62.4346V62.4317V62.4287V62.4258V62.423V62.4201V62.4172V62.4143V62.4115V62.4086V62.4057V62.4028V62.4V62.3971V62.3942V62.3915V62.3886V62.3857V62.3828V62.3801V62.3772V62.3743V62.3715V62.3687V62.3658V62.3631V62.3602V62.3575V62.3546V62.3518V62.349V62.3462V62.3433V62.3406V62.3378V62.335V62.3322V62.3295V62.3267V62.324V62.3211V62.3183V62.3156V62.3128V62.3101V62.3073V62.3046V62.3018V62.2992V62.2965V62.2937V62.291V62.2882V62.2856C55.1284 62.0815 55.0272 61.9118 54.9269 61.7851C54.8275 61.6597 54.6995 61.5408 54.5895 61.4386L54.5819 61.4315C54.4625 61.3206 54.3631 61.2275 54.2915 61.137C54.2185 61.045 54.2041 60.9917 54.2041 60.9646C54.2041 60.94 54.2165 60.8925 54.2841 60.8145C54.3509 60.7373 54.4466 60.6587 54.5606 60.5732C54.5869 60.5535 54.6151 60.5327 54.644 60.5115L54.6449 60.5107L54.6451 60.5106L54.6454 60.5103C54.7302 60.4481 54.8217 60.3807 54.8931 60.3187C54.9429 60.2753 54.9965 60.2235 55.0391 60.1641C55.0806 60.1061 55.1284 60.0182 55.1284 59.9077V59.3133V59.0346V58.9487V58.9252V58.9191V58.9175V58.9173V58.9172V58.9171V58.79C55.4961 58.6246 55.7827 58.3107 55.9117 57.9247C56.6028 57.8881 57.004 57.1916 56.8347 56.5987C56.7867 56.4305 56.6994 56.3085 56.5897 56.22C56.4877 56.1375 56.3747 56.0921 56.2977 56.0618C56.121 55.9922 56.1186 55.9813 56.1126 55.9545L56.1117 55.9505C56.1062 55.927 56.106 55.9136 56.1351 55.8787C56.177 55.8287 56.2465 55.7785 56.358 55.7023L56.3716 55.693C56.4662 55.6285 56.5944 55.541 56.6894 55.4312C56.8004 55.303 56.8815 55.1272 56.8405 54.9058C56.7796 54.577 56.4977 54.4395 56.3502 54.3676L56.3501 54.3675L56.3406 54.3628C56.3354 54.3603 56.3302 54.3578 56.3255 54.3555C56.1335 54.2603 56.1212 54.2328 56.1169 54.196C56.1141 54.1737 56.116 54.1618 56.1411 54.1346C56.1787 54.094 56.2391 54.0541 56.3415 53.9915L56.356 53.9825C56.4425 53.9296 56.5612 53.8568 56.6546 53.7622C56.7635 53.6518 56.8521 53.4981 56.8447 53.2931C56.8376 53.0985 56.7475 52.9557 56.6401 52.8537C56.548 52.766 56.4337 52.7002 56.3512 52.6527L56.3372 52.6446C56.2397 52.5883 56.1827 52.5528 56.1462 52.516C56.1212 52.4906 56.1176 52.4775 56.1185 52.4546C56.1191 52.4398 56.1209 52.4277 56.1511 52.4015C56.1921 52.3657 56.2521 52.3337 56.3512 52.2828L56.3599 52.2785V52.2783C56.4432 52.2357 56.5627 52.1745 56.657 52.087C56.7679 51.9841 56.8532 51.8371 56.8446 51.64C56.8364 51.451 56.745 51.3155 56.6345 51.2227C56.5402 51.1437 56.4247 51.09 56.3447 51.0528L56.335 51.0483C56.2395 51.0038 56.1841 50.9766 56.1462 50.9458C56.1199 50.9243 56.1189 50.9153 56.1177 50.903C56.1154 50.8743 56.1249 50.8251 56.1734 50.7511C56.2211 50.6785 56.2931 50.6032 56.3761 50.5318C56.4577 50.4616 56.5419 50.4022 56.6065 50.3601C56.6385 50.3392 56.665 50.323 56.6831 50.3122C56.6921 50.3068 56.699 50.303 56.7032 50.3005L56.7079 50.2978L56.7084 50.2976L56.7085 50.2975L56.7086 50.2973L56.8449 50.2222V50.0662V41.744H56.9096C57.821 41.744 58.5886 41.1287 58.8199 40.2908C58.8231 40.2791 58.8262 40.2673 58.8294 40.2555C59.5436 40.1018 60.0791 39.4663 60.0791 38.7057C60.0791 37.8302 59.3697 37.1205 58.4947 37.1205H57.9666C57.9222 37.1205 57.8782 37.1223 57.8347 37.1258V37.1205V35.5352V35.0068H57.3064H49.6491H49.1207V35.5352V37.1205V37.1258C49.0771 37.1223 49.033 37.1205 48.9885 37.1205H48.4604C47.5854 37.1205 46.876 37.8302 46.876 38.7057ZM56.3165 41.744H50.7345V49.9185C50.8117 49.9688 50.9154 50.0417 51.0194 50.1311C51.1224 50.2197 51.2342 50.3316 51.3192 50.461C51.4034 50.5891 51.4756 50.7566 51.4597 50.9468C51.4441 51.1345 51.3482 51.2661 51.2381 51.3557C51.1445 51.432 51.0309 51.4847 50.9515 51.5216L50.939 51.5273C50.844 51.5716 50.791 51.5983 50.7564 51.6273C50.735 51.6453 50.7347 51.6512 50.7344 51.6618L50.7342 51.663V51.6646C50.7336 51.676 50.7335 51.681 50.7535 51.6996C50.7879 51.7315 50.8427 51.7623 50.941 51.8127L50.9552 51.82C51.0374 51.8621 51.1531 51.9212 51.247 52.003C51.3574 52.0991 51.4527 52.2385 51.4605 52.4336C51.4684 52.6301 51.3875 52.7792 51.2805 52.8875C51.1879 52.9811 51.0697 53.0493 50.9857 53.0977L50.978 53.1022C50.8795 53.1591 50.818 53.1957 50.7751 53.2365C50.742 53.268 50.7352 53.2875 50.7344 53.3123C50.7335 53.3368 50.7384 53.3565 50.7726 53.3912C50.817 53.4362 50.8827 53.4777 50.9859 53.541L50.994 53.546C51.0817 53.5998 51.2045 53.675 51.2977 53.7757C51.4061 53.8928 51.4835 54.0532 51.4589 54.2588C51.4174 54.6045 51.1284 54.7463 50.9799 54.8192L50.9794 54.8195L50.9711 54.8235L50.9602 54.8288C50.7652 54.9255 50.7386 54.9561 50.7301 55.0021C50.7255 55.027 50.7267 55.0455 50.7612 55.0855C50.8071 55.1383 50.8796 55.1897 50.9912 55.2661L51.0019 55.2733C51.0969 55.3382 51.2269 55.4271 51.3211 55.5397C51.4317 55.6718 51.5055 55.8508 51.4537 56.0712C51.3789 56.3898 51.1121 56.4908 50.976 56.5423L50.9756 56.5425C50.9652 56.5463 50.9556 56.5501 50.9469 56.5535C50.8699 56.5838 50.8259 56.6047 50.7931 56.6311C50.7679 56.6515 50.7424 56.6808 50.7244 56.7438C50.6342 57.0596 50.8662 57.3978 51.1965 57.3978H55.8545C56.1847 57.3978 56.4167 57.0596 56.3266 56.7438C56.3086 56.6808 56.2831 56.6515 56.2579 56.6311C56.2251 56.6047 56.1812 56.5838 56.1041 56.5535C56.0955 56.5501 56.0859 56.5465 56.0755 56.5425L56.0751 56.5423C55.9389 56.4908 55.6721 56.3898 55.5972 56.0712C55.5456 55.8508 55.6194 55.6718 55.7299 55.5397C55.8241 55.4271 55.9541 55.3382 56.0492 55.2733L56.0597 55.2661C56.1714 55.1897 56.244 55.1383 56.2897 55.0855C56.3244 55.0455 56.3255 55.027 56.3209 55.0021C56.3124 54.9561 56.2857 54.9255 56.0907 54.8288C56.0854 54.8262 56.0797 54.8235 56.0739 54.8205L56.0716 54.8195L56.0712 54.8192C55.9227 54.7463 55.6336 54.6045 55.5922 54.2588C55.5675 54.0532 55.6449 53.8928 55.7534 53.7757C55.8465 53.675 55.9692 53.5998 56.057 53.546L56.0652 53.541C56.1684 53.4777 56.234 53.4362 56.2784 53.3912C56.3127 53.3565 56.3175 53.3368 56.3166 53.3123C56.3157 53.2875 56.309 53.268 56.2759 53.2365C56.2331 53.1957 56.1715 53.1591 56.073 53.1022L56.0652 53.0977C55.9814 53.0493 55.8631 52.9811 55.7705 52.8875C55.6635 52.7792 55.5827 52.6301 55.5905 52.4336C55.5982 52.2385 55.6937 52.0991 55.8041 52.003C55.898 51.9212 56.0136 51.8621 56.0957 51.82L56.11 51.8127C56.2082 51.7623 56.2632 51.7315 56.2975 51.6996C56.3176 51.681 56.3174 51.676 56.3167 51.6646V51.663V51.6618C56.3162 51.6512 56.316 51.6453 56.2946 51.6273C56.2601 51.5983 56.2071 51.5716 56.1121 51.5273L56.0996 51.5216C56.0201 51.4847 55.9066 51.432 55.8129 51.3557C55.7027 51.2661 55.6069 51.1345 55.5912 50.9468C55.5754 50.7566 55.6476 50.5891 55.7317 50.461C55.8167 50.3316 55.9286 50.2197 56.0317 50.1311C56.1356 50.0417 56.2394 49.9688 56.3165 49.9185V41.744ZM48.593 39.7625H48.993C49.5739 39.76 50.0445 39.2881 50.0445 38.7057C50.0445 38.1217 49.5715 37.6488 48.9885 37.6488H48.4604C47.8775 37.6488 47.4044 38.1217 47.4044 38.7057C47.4044 39.2881 47.875 39.76 48.4559 39.7625H48.593ZM59.5507 38.7057C59.5507 39.2881 59.0801 39.76 58.4992 39.7625H58.3627H57.9621C57.3812 39.76 56.9106 39.2881 56.9106 38.7057C56.9106 38.1217 57.3837 37.6488 57.9666 37.6488H58.4947C59.0777 37.6488 59.5507 38.1217 59.5507 38.7057ZM56.382 37.6488V39.7625H50.5732V37.6488H56.382ZM52.4222 58.5207C52.0044 58.5207 51.6432 58.2782 51.4717 57.9262H55.4837C55.3122 58.2782 54.9511 58.5207 54.5332 58.5207H52.4222ZM52.4217 59.3133V59.1812H54.6V59.3133V59.8682C54.5895 59.8802 54.5725 59.8972 54.5464 59.92C54.4924 59.9668 54.4281 60.0142 54.3506 60.0711C54.3174 60.0956 54.2817 60.1218 54.2435 60.1505C54.1264 60.2383 53.9911 60.3455 53.8846 60.4686C53.7789 60.5907 53.6757 60.758 53.6757 60.9646C53.6757 61.1686 53.7769 61.3383 53.8772 61.4651C53.9765 61.5903 54.1045 61.7093 54.2145 61.8115L54.2222 61.8186C54.3416 61.9295 54.4409 62.0226 54.5126 62.1131C54.5855 62.2052 54.6 62.2585 54.6 62.2856V62.2882V62.291V62.2937V62.2965V62.2992V62.3018V62.3046V62.3073V62.3101V62.3128V62.3156V62.3183V62.3211V62.324V62.3267V62.3295V62.3322V62.335V62.3378V62.3406V62.3433V62.3462V62.349V62.3518V62.3546V62.3575V62.3602V62.3631V62.3658V62.3687V62.3715V62.3743V62.3772V62.3801V62.3828V62.3857V62.3886V62.3915V62.3942V62.3971V62.4V62.4028V62.4057V62.4086V62.4115V62.4143V62.4172V62.4201V62.423V62.4258V62.4287V62.4317V62.4346V62.4375V62.4403V62.4432V62.4462V62.4491V62.452V62.4548V62.4578V62.4607V62.4636V62.4666V62.4695V62.4723V62.4753V62.4782V62.4812V62.4841V62.4871V62.49V62.493V62.4958V62.4988V62.5017V62.5047V62.5076V62.5106V62.5135V62.5165V62.5195V62.5223V62.5253V62.5283V62.5312V62.5342V62.5372V62.5401V62.5431V62.5461V62.549V62.552V62.555V62.5578V62.5608V62.5638V62.5668V62.5697V62.5727V62.5757V62.5787V62.5817V62.5846V62.5876V62.5906V62.5936V62.5965V62.5995V62.6025V62.6055V62.6085V62.6115V62.6143V62.6173V62.6203V62.6233V62.6263V62.6292V62.6322V62.6352V62.6382V62.6412V62.6441V62.6471V62.6501V62.6531V62.6561V62.6591V62.662V62.665V62.668V62.671V62.6738V62.6768V62.6798V62.6828V62.6858V62.6887V62.6917V62.6947V62.6976V62.7006V62.7036V62.7066V62.7095V62.7125V62.7155V62.7183V62.7213V62.7243V62.7272V62.7302V62.7332V62.7361V62.7391V62.742V62.745V62.748V62.7508V62.7538V62.7567V62.7597V62.7626V62.7656V62.7685V62.7715V62.7743V62.7772V62.7802V62.7831V62.7861V62.789V62.7918V62.7948V62.7977V62.8006V62.8036V62.8065V62.8093V62.8122V62.8152V62.8181V62.821V62.8238V62.8267V62.8296V62.8325V62.8353V62.8382V62.8411V62.844V62.8468V62.8497V62.8526V62.8555V62.8583V62.8612V62.8641V62.8668V62.8697V62.8726V62.8755V62.8782V62.8811V62.884V62.8867V62.8896V62.8923V62.8952V62.8981V62.9008V62.9036V62.9065V62.9092V62.9121V62.9148V62.9176V62.9205V62.9232V62.926V62.9287V62.9315V62.9342V62.9371V62.9398V62.9426V62.9453V62.948V62.9507V62.9535V62.9562V62.959V62.9617V62.9643V62.9671V62.9698V62.9725V62.9752V62.978V62.9806V62.9833V62.986V62.9886V62.9913V62.994V62.9966V62.9993V63.002V63.0046V63.0072V63.0098V63.0125V63.0151V63.0177V63.0203V63.023V63.0256V63.0282V63.0307V63.0333V63.036V63.0385V63.0411V63.0437V63.0462V63.0487V63.0513V63.0538V63.0563V63.059V63.0615V63.064V63.0665V63.069V63.0715V63.074V63.0765V63.079V63.0815V63.084V63.0863V63.0888V63.0913V63.0937V63.0962V63.0986V63.1011V63.1035V63.1058V63.1083V63.1107V63.1131V63.1155V63.1178V63.1202V63.1226V63.125V63.1273V63.1296V63.132V63.1343V63.1366V63.139V63.1412V63.1436V63.1442H52.4217V63.1436V63.1412V63.1388V63.1365V63.1341V63.1316V63.1292V63.1268V63.1243V63.122V63.1196V63.1171V63.1146V63.1122V63.1097V63.1072V63.1048V63.1023V63.0998V63.0973V63.0948V63.0923V63.0898V63.0873V63.0847V63.0822V63.0797V63.0772V63.0746V63.0721V63.0695V63.067V63.0643V63.0618V63.0592V63.0566V63.054V63.0515V63.0488V63.0462V63.0436V63.041V63.0383V63.0357V63.0331V63.0305V63.0277V63.0251V63.0225V63.0198V63.0171V63.0145V63.0117V63.0091V63.0063V63.0037V63.001V62.9983V62.9956V62.9928V62.9902V62.9875V62.9847V62.982V62.9792V62.9765V62.9738V62.9711V62.9683V62.9656V62.9627V62.96V62.9572V62.9545V62.9517V62.949V62.9461V62.9433V62.9406V62.9377V62.935V62.9322V62.9293V62.9266V62.9237V62.921V62.9181V62.9153V62.9125V62.9097V62.9068V62.904V62.9012V62.8983V62.8955V62.8926V62.8898V62.887V62.8841V62.8812V62.8783V62.8756V62.8727V62.8698V62.867V62.8641V62.8612V62.8583V62.8555V62.8526V62.8497V62.8468V62.844V62.8411V62.8382V62.8352V62.8323V62.8295V62.8266V62.8237V62.8208V62.8178V62.815V62.8121V62.8092V62.8062V62.8033V62.8005V62.7976V62.7946V62.7917V62.7888V62.7858V62.783V62.7801V62.7771V62.7742V62.7713V62.7683V62.7655V62.7626V62.7596V62.7567V62.7537V62.7508V62.748V62.745V62.7421V62.7391V62.7362V62.7333V62.7303V62.7275V62.7245V62.7216V62.7187V62.7157V62.7128V62.7098V62.707V62.7041V62.7011V62.6982V62.6952V62.6923V62.6895V62.6865V62.6836V62.6806V62.6777V62.6748V62.6718V62.669V62.6661V62.6631V62.6602V62.6573V62.6543V62.6515V62.6486V62.6456V62.6427V62.6398V62.637V62.634V62.6311V62.6282V62.6253V62.6223V62.6195V62.6166V62.6137V62.6108V62.608V62.605V62.6021V62.5992V62.5963V62.5935V62.5906V62.5877V62.5848V62.582V62.5791V62.5762V62.5733V62.5705V62.5676V62.5648V62.562V62.5591V62.5562V62.5533V62.5505V62.5477V62.5448V62.542V62.5392V62.5363V62.5335V62.5307V62.5278V62.5251V62.5222V62.5195V62.5166V62.5138V62.511V62.5082V62.5053V62.5026V62.4998V62.4971V62.4942V62.4915V62.4887V62.486V62.4832V62.4805V62.4776V62.4748V62.4721V62.4693V62.4667V62.464V62.4612V62.4585V62.4557V62.453V62.4503V62.4476V62.4448V62.4422V62.4395V62.4368V62.4341V62.4315V62.4287V62.4261V62.4233V62.4207V62.4181V62.4155V62.4127V62.4101V62.4075V62.4048V62.4022V62.3996V62.397V62.3943V62.3917V62.3892V62.3866V62.384V62.3813V62.3788V62.3762V62.3737V62.3711V62.3686V62.366V62.3635V62.361V62.3585V62.3558V62.3533V62.3508V62.3483V62.3458V62.3433V62.3408V62.3383V62.336V62.3335V62.331V62.3286V62.3261V62.3236V62.3212V62.3188V62.3163V62.314V62.3116V62.3091V62.3067V62.3043V62.302V62.2996V62.2972V62.2948V62.2926V62.2902V62.2878V62.2856C52.4217 62.2716 52.4341 62.2171 52.5091 62.1085C52.5785 62.0077 52.6746 61.8978 52.7834 61.7766L52.8135 61.743C52.909 61.6367 53.0127 61.5211 53.0937 61.4121C53.1391 61.3508 53.1832 61.2841 53.2167 61.2147C53.2495 61.147 53.2799 61.0607 53.2799 60.9646C53.2799 60.7791 53.1669 60.6242 53.0822 60.5253C52.9881 60.4155 52.8674 60.3071 52.7617 60.2136L52.7264 60.1823C52.6292 60.0965 52.5466 60.0235 52.4841 59.957C52.4516 59.9223 52.4321 59.8972 52.4217 59.8807V59.3133ZM54.6121 59.8525C54.6121 59.8523 54.6122 59.8523 54.6122 59.8523C54.6121 59.8523 54.6119 59.8528 54.6114 59.8537C54.6117 59.8531 54.612 59.8527 54.6121 59.8525ZM52.416 59.8708C52.4156 59.8698 52.4154 59.8693 52.4154 59.8693C52.4152 59.8693 52.4154 59.8695 52.4155 59.8697C52.4156 59.87 52.4157 59.8703 52.416 59.8708Z" fill="black"/>
<path fill-rule="evenodd" clip-rule="evenodd" d="M53.082 17.3052C52.5715 17.3052 52.1577 17.7192 52.1577 18.2299C52.1577 18.7406 52.5715 19.1546 53.082 19.1546H56.3827V20.6077H57.703V18.2299C57.703 17.7192 57.2892 17.3052 56.7788 17.3052H53.082ZM53.082 17.8336C52.8631 17.8336 52.6858 18.0111 52.6858 18.2299C52.6858 18.4488 52.8631 18.6262 53.082 18.6262H55.9866C56.2053 18.6262 56.3827 18.4488 56.3827 18.2299C56.3827 18.0111 56.2053 17.8336 55.9866 17.8336H53.082Z" fill="black"/>
<path d="M56.5805 19.1547V18.9565H56.3823H53.0816C52.6806 18.9565 52.3555 18.6314 52.3555 18.23C52.3555 17.8287 52.6806 17.5034 53.0816 17.5034H56.7785C57.1793 17.5034 57.5045 17.8287 57.5045 18.23V20.4097H56.5805V19.1547ZM54.3357 20.6078C54.3357 20.7504 54.2592 20.8945 54.1056 21.0098C53.952 21.125 53.7306 21.2023 53.4776 21.2023C53.2247 21.2023 53.0033 21.125 52.8497 21.0098C52.6961 20.8945 52.6195 20.7504 52.6195 20.6078C52.6195 20.4653 52.6961 20.3212 52.8497 20.2059C53.0033 20.0905 53.2247 20.0134 53.4776 20.0134C53.7306 20.0134 53.952 20.0905 54.1056 20.2059C54.2592 20.3212 54.3357 20.4653 54.3357 20.6078ZM53.0816 17.6355C52.7532 17.6355 52.4873 17.9018 52.4873 18.23C52.4873 18.5582 52.7532 18.8244 53.0816 18.8244H55.9862C56.3145 18.8244 56.5805 18.5582 56.5805 18.23C56.5805 17.9018 56.3145 17.6355 55.9862 17.6355H53.0816Z" stroke="black" stroke-width="0.396301"/>
<path d="M19.889 59.4334C20.4978 58.8732 22.8206 57.935 24.4638 57.2852L25.1561 60.7623C23.1941 60.9179 20.6796 60.9917 20.1212 60.6609C19.5628 60.3302 19.2802 59.9938 19.889 59.4334Z" fill="black"/>
<path d="M21.2659 64.5177C21.7704 63.8806 23.864 62.6371 25.3472 61.771L26.5017 65.1194C24.6432 65.5394 22.2436 65.9532 21.6617 65.7015C21.0799 65.4497 20.7615 65.155 21.2659 64.5177Z" fill="black"/>
<path d="M23.3114 69.8028C23.7095 69.0773 25.6111 67.4462 26.9609 66.3052L28.7268 69.3791C26.9171 70.1534 24.5579 71.0268 23.9231 70.8918C23.2884 70.7568 22.9131 70.5283 23.3114 69.8028Z" fill="black"/>
<path d="M26.2395 74.1809C26.5141 73.4161 28.1012 71.5686 29.2303 70.2739L31.3931 73.0782C29.766 74.0699 27.6241 75.2288 26.9923 75.1762C26.3606 75.1236 25.9647 74.9459 26.2395 74.1809Z" fill="black"/>
<path d="M29.7609 78.2278C29.9351 77.4187 31.2911 75.3115 32.2583 73.832L34.8291 76.2722C33.3163 77.532 31.3052 79.044 30.6584 79.0963C30.0117 79.1484 29.5867 79.0368 29.7609 78.2278Z" fill="black"/>
<path d="M33.8186 81.5855C33.8631 80.7738 34.8558 78.5495 35.5677 76.9858L38.4417 79.054C37.1661 80.47 35.445 82.1933 34.8246 82.3236C34.2041 82.454 33.7741 82.3971 33.8186 81.5855Z" fill="black"/>
<path d="M38.3568 84.2691C38.2698 83.4461 38.9003 81.0206 39.3574 79.313L42.5611 80.828C41.5174 82.4974 40.0786 84.5621 39.4805 84.8137C38.8824 85.0655 38.4439 85.0922 38.3568 84.2691Z" fill="black"/>
<path d="M43.2598 86.1912C43.0488 85.4062 43.2977 82.9829 43.4859 81.2749L46.8617 82.3418C46.0917 84.0855 44.9945 86.2605 44.4458 86.5781C43.897 86.8958 43.4708 86.976 43.2598 86.1912Z" fill="black"/>
<path d="M47.9476 87.5376C47.6079 86.7829 47.4498 84.2817 47.3511 82.5166L50.8674 82.9547C50.3969 84.8669 49.6747 87.2779 49.1851 87.7039C48.6953 88.1299 48.2871 88.2922 47.9476 87.5376Z" fill="black"/>
<path d="M53.2055 87.8321C52.76 87.1523 52.24 84.7724 51.8857 83.0912L55.4257 83.0498C55.2385 84.9469 54.8751 87.3559 54.453 87.8291C54.0309 88.3023 53.651 88.5118 53.2055 87.8321Z" fill="black"/>
<path d="M87.0166 59.3475C86.4078 58.7872 84.085 57.8491 82.4418 57.1992L81.7495 60.6763C83.7115 60.832 86.226 60.9057 86.7844 60.575C87.3428 60.2442 87.6254 59.9077 87.0166 59.3475Z" fill="black"/>
<path d="M85.6397 64.4323C85.1352 63.7952 83.0416 62.5515 81.5583 61.6855L80.4038 65.0339C82.2623 65.4538 84.6619 65.8678 85.2438 65.616C85.8257 65.3642 86.1441 65.0694 85.6397 64.4323Z" fill="black"/>
<path d="M83.5951 69.7174C83.1969 68.9919 81.2953 67.3607 79.9456 66.2197L78.1797 69.2936C79.9893 70.068 82.3486 70.9414 82.9833 70.8064C83.6181 70.6714 83.9933 70.4427 83.5951 69.7174Z" fill="black"/>
<path d="M80.6663 74.0955C80.3917 73.3305 78.8046 71.4831 77.6754 70.1885L75.5127 72.9926C77.1398 73.9844 79.2817 75.1434 79.9135 75.0907C80.5452 75.0381 80.9411 74.8605 80.6663 74.0955Z" fill="black"/>
<path d="M77.1443 78.1418C76.9702 77.3328 75.6142 75.2256 74.6469 73.7461L72.0762 76.1863C73.5889 77.4461 75.6 78.9581 76.2468 79.0103C76.8935 79.0626 77.3185 78.951 77.1443 78.1418Z" fill="black"/>
<path d="M73.088 81.4995C73.0435 80.688 72.0507 78.4637 71.3388 76.8999L68.4648 78.9682C69.7405 80.384 71.4616 82.1075 72.082 82.2378C72.7025 82.3682 73.1325 82.3112 73.088 81.4995Z" fill="black"/>
<path d="M68.5491 84.1833C68.6361 83.3603 68.0056 80.9348 67.5485 79.2271L64.3447 80.7421C65.3885 82.4116 66.8272 84.4763 67.4254 84.7279C68.0235 84.9797 68.462 85.0063 68.5491 84.1833Z" fill="black"/>
<path d="M63.6468 86.1056C63.8578 85.3207 63.6089 82.8973 63.4207 81.1895L60.0449 82.2563C60.8149 83.9999 61.912 86.175 62.4608 86.4926C63.0095 86.8102 63.4358 86.8906 63.6468 86.1056Z" fill="black"/>
<path d="M58.957 87.4522C59.2966 86.6974 59.4547 84.1963 59.5535 82.4312L56.0371 82.8693C56.5076 84.7814 57.2299 87.1924 57.7195 87.6184C58.2092 88.0444 58.6175 88.2068 58.957 87.4522Z" fill="black"/>
<path d="M53.7007 87.7461C54.1462 87.0664 54.6662 84.6865 55.0205 83.0051L51.4805 82.9639C53.2628 83.1572 53.0388 86.9787 53.461 87.452C53.8831 87.9251 53.2552 88.4259 53.7007 87.7461Z" fill="black"/>
<path fill-rule="evenodd" clip-rule="evenodd" d="M53.3943 83.2236C69.5458 83.2236 82.6392 70.1234 82.6392 53.9634C82.6392 37.8034 69.5458 24.7031 53.3943 24.7031C37.2428 24.7031 24.1494 37.8034 24.1494 53.9634C24.1494 70.1234 37.2428 83.2236 53.3943 83.2236ZM53.3943 73.7124C63.931 73.7124 72.4728 65.1661 72.4728 54.6239C72.4728 44.0816 63.931 35.5354 53.3943 35.5354C42.8575 35.5354 34.3158 44.0816 34.3158 54.6239C34.3158 65.1661 42.8575 73.7124 53.3943 73.7124Z" fill="black"/>
<path d="M49.1035 20.6079H57.7034V25.2314H49.1035V20.6079Z" fill="black"/>
<path d="M67.1207 23.2739L73.2993 26.5608L71.1298 30.6432L64.9512 27.3562L67.1207 23.2739Z" fill="black"/>
<path d="M82.6301 37.3843L85.2742 43.8666L80.9957 45.6137L78.3516 39.1313L82.6301 37.3843Z" fill="black"/>
<path d="M24.1528 37.3843L21.5088 43.8666L25.7873 45.6137L28.4313 39.1313L24.1528 37.3843Z" fill="black"/>
<path d="M39.5767 23.2061L33.5166 26.7067L35.8271 30.7108L41.8874 27.2101L39.5767 23.2061Z" fill="black"/>
<path d="M62.1191 11.6464L71.4441 4.04834L61.111 16.1479L60.537 13.5634L60.4567 13.2024L60.2006 13.4691L57.6897 16.0838L60.3882 9.5269L61.8311 11.6057L61.9531 11.7816L62.1191 11.6464ZM46.4188 13.5634L45.8448 16.1479L35.5117 4.04835L44.8367 11.6464L45.0026 11.7816L45.1246 11.6057L46.5675 9.5269L49.266 16.0838L46.7552 13.4691L46.499 13.2024L46.4188 13.5634Z" fill="#F30100" stroke="black" stroke-width="0.396301"/>
</g>
<defs>
<clipPath id="clip0_83_7191">
<rect width="105.75" height="100" fill="white" transform="translate(0.625)"/>
</clipPath>
</defs>
</svg>
