<svg width="101" height="100" viewBox="0 0 101 100" fill="none" xmlns="http://www.w3.org/2000/svg">
<g clip-path="url(#clip0_83_7270)">
<path fill-rule="evenodd" clip-rule="evenodd" d="M34.9997 18.2588C24.6384 30.1898 13.3311 39.8796 2.35697 46.7701C1.21099 47.4897 0.5 48.739 0.5 50.0923C0.5 51.4454 1.21099 52.6946 2.35697 53.4142C13.3311 60.3047 24.6384 69.9946 34.9997 81.9256C39.6524 87.283 43.8309 92.7657 47.5014 98.2524C48.2272 99.3374 49.441 100 50.7464 100C52.0519 100 53.2656 99.3374 53.9915 98.2524C57.662 92.7657 61.8405 87.283 66.4931 81.9256C76.622 70.2624 87.6547 60.7407 98.3966 53.8824C99.694 53.054 100.5 51.6315 100.5 50.0923C100.5 48.5529 99.694 47.1304 98.3966 46.302C87.6547 39.4436 76.622 29.922 66.4931 18.2588C61.7607 12.8096 57.5189 7.23051 53.8031 1.64972C53.1211 0.625386 51.977 0 50.7464 0C49.5159 0 48.3717 0.625386 47.6898 1.64972C43.974 7.23051 39.7321 12.8096 34.9997 18.2588Z" fill="url(#paint0_linear_83_7270)"/>
<path d="M50.5688 87.4922C49.2766 87.5577 47.96 87.1962 46.8431 86.3763C33.1728 76.3413 24.6913 67.3236 14.3775 53.2255C12.78 51.0419 12.8947 48.0543 14.6286 45.9874C25.023 33.5982 33.1945 24.8885 46.7881 13.8132C47.8956 12.9108 49.2373 12.4806 50.5688 12.5007V14.3762C49.6528 14.3564 48.73 14.6495 47.9724 15.2668C34.4958 26.2469 26.4078 34.8649 16.0651 47.1926C14.8808 48.6042 14.8075 50.6377 15.8908 52.1185C26.113 66.0916 34.4638 74.9631 47.9528 84.8649C48.7318 85.4368 49.6604 85.6806 50.5688 85.6137V87.4922Z" fill="white"/>
<path d="M50.5684 87.4913C51.8626 87.5572 53.1815 87.1947 54.2995 86.3723C67.9414 76.3379 76.4067 67.3191 86.7011 53.2204C88.2942 51.0386 88.1799 48.0561 86.4504 45.9907C76.0754 33.6009 67.9194 24.8908 54.3544 13.8167C53.2457 12.9117 51.902 12.4804 50.5684 12.5007V14.3762C51.486 14.3562 52.4102 14.6501 53.1686 15.2692C66.6167 26.2478 74.6895 34.8664 85.0129 47.1946C86.1941 48.6051 86.2672 50.6351 85.1869 52.1147C74.9837 66.0884 66.649 74.9609 53.1885 84.8619C52.4086 85.4356 51.4784 85.6801 50.5684 85.6127V87.4913Z" fill="white"/>
<path d="M60.6875 73.375H41.5V75.75H58.7967L60.6875 73.375Z" fill="white"/>
<path d="M42.7783 63.5H61.9998V61H44.7031L42.7783 63.5Z" fill="white"/>
<path d="M45.5005 63.5H48.0005V72.875H45.5005V63.5Z" fill="white"/>
<path d="M55.625 64.375H58.125V72.875H55.625V64.375Z" fill="white"/>
<path d="M48.875 64.375H51.375V72.875H48.875V64.375Z" fill="white"/>
<path d="M51.3755 64.375H54.3755V66.375H51.3755V64.375Z" fill="white"/>
<path d="M51.3755 67.625H54.3755V69.625H51.3755V67.625Z" fill="white"/>
<path d="M51.3755 70.875H54.3755V72.875H51.3755V70.875Z" fill="white"/>
<path d="M57.0348 32.6343L56.2906 32.4802L56.5309 33.2011L58.0309 37.7011L58.1739 38.1302L58.598 37.9729L60.824 37.1478C62.3619 37.7414 63.4681 38.3823 64.1428 38.9577C64.5015 39.2637 64.7162 39.5323 64.8194 39.7443C64.9203 39.9513 64.8969 40.0588 64.8689 40.1134C64.213 41.3957 61.5195 44.5627 49.6334 44.5627C43.6876 44.5627 40.1063 43.8292 38.121 42.9153C37.1288 42.4584 36.5715 41.9731 36.3 41.5479C36.0381 41.1378 36.0349 40.7782 36.1605 40.4851C36.3933 39.9421 36.9656 39.2997 38.1964 38.6039C39.4234 37.9103 41.2629 37.1873 43.9588 36.4627L44.8349 36.2272L44.1051 35.6883L39.1434 32.0233L38.9531 31.8828L38.7315 31.9649C35.3241 33.2269 34.359 33.8041 32.2735 35.1311L32.2648 35.1367L32.2561 35.1428C31.163 35.9144 30.0314 36.9603 29.2231 38.0163C28.8193 38.5441 28.4853 39.0884 28.2814 39.6143C28.0793 40.1353 27.9883 40.6822 28.1356 41.1856C28.3883 42.0483 29.0025 42.8448 29.8841 43.5592C30.7678 44.2751 31.9441 44.9287 33.3696 45.5014C36.22 46.6471 39.979 47.4346 44.1116 47.7644C48.2471 48.0944 52.5681 47.9509 56.4683 47.3529C60.3616 46.7561 63.6709 45.7314 65.91 44.4019C68.124 43.0872 69.3373 41.4308 68.9325 39.6372C68.7351 38.7626 68.1408 37.9312 67.2813 37.1852C66.6418 36.6302 65.8394 36.1081 64.9013 35.6363L65.848 35.2854L67.2766 34.7558L65.7846 34.4468L57.0348 32.6343Z" fill="white" stroke="url(#paint1_linear_83_7270)" stroke-width="0.875"/>
<path d="M45.625 30.625V51.5V52V53.25V53.75V57.625H45.375V30.625H45.625ZM46.125 29.625H45.375V29.375H49.25H49.75H51H51.5H55.5V29.625H54.75H54.25H51.5H51H49.75H49.25H46.625H46.125ZM50.5 28.375H50.25V21.3726C50.2915 21.3741 50.3331 21.375 50.375 21.375C50.4169 21.375 50.4585 21.3741 50.5 21.3726V28.375ZM55.25 30.625H55.5V57.625H55.25V53.75V53.25V52V51.5V30.625ZM54.75 58.625H55.5V58.875H45.375V58.625H46.125H46.625H49.25H49.75H51H51.5H54.25H54.75ZM49.25 52.5V52.75H46.625V52.5H49.25ZM50.25 51.5V30.625H50.5V51.5V52V53.25V53.75V57.625H50.25V53.75V53.25V52V51.5ZM51.5 52.75V52.5H54.25V52.75H51.5ZM51.4893 20.0356C51.4474 20.067 51.4025 20.0969 51.3548 20.125H51H49.75H49.3952C49.3475 20.0969 49.3026 20.067 49.2607 20.0356C48.9936 19.8353 48.875 19.5965 48.875 19.375C48.875 19.1535 48.9936 18.9147 49.2607 18.7144C49.5281 18.5137 49.9205 18.375 50.375 18.375C50.8295 18.375 51.2219 18.5137 51.4893 18.7144C51.7564 18.9147 51.875 19.1535 51.875 19.375C51.875 19.5965 51.7564 19.8353 51.4893 20.0356Z" stroke="#FFFFFD"/>
<path fill-rule="evenodd" clip-rule="evenodd" d="M28.502 40.75C28.508 40.8585 28.5252 40.9629 28.5543 41.0625C28.993 42.5604 30.7341 43.9711 33.5316 45.0954C36.3292 46.2196 40.0418 47.0006 44.1453 47.3281C48.2488 47.6555 52.5358 47.5129 56.4008 46.9204C60.266 46.3278 63.5137 45.3151 65.6855 44.0256C67.3658 43.0277 68.3365 41.9032 68.5327 40.75H64.9965C63.8976 42.3592 60.5102 45 49.6323 45C38.6432 45 35.4927 42.5108 35.6466 40.75H28.502Z" fill="white"/>
<mask id="mask0_83_7270" style="mask-type:luminance" maskUnits="userSpaceOnUse" x="27" y="39" width="43" height="10">
<path d="M69.6279 39.875H27.5029V48.5H69.6279V39.875Z" fill="white"/>
<path fill-rule="evenodd" clip-rule="evenodd" d="M28.502 40.75C28.508 40.8585 28.5252 40.9629 28.5543 41.0625C28.993 42.5604 30.7341 43.9711 33.5316 45.0954C36.3292 46.2196 40.0418 47.0006 44.1453 47.3281C48.2488 47.6555 52.5358 47.5129 56.4008 46.9204C60.266 46.3278 63.5137 45.3151 65.6855 44.0256C67.3658 43.0277 68.3365 41.9032 68.5327 40.75H64.9965C63.8976 42.3592 60.5102 45 49.6323 45C38.6432 45 35.4927 42.5108 35.6466 40.75H28.502Z" fill="black"/>
</mask>
<g mask="url(#mask0_83_7270)">
<path d="M28.5022 40.75V39.875H27.5767L27.6284 40.7989L28.5022 40.75ZM68.5329 40.75L69.3955 40.8969L69.5694 39.875H68.5329V40.75ZM64.9967 40.75V39.875H64.5347L64.2742 40.2565L64.9967 40.75ZM35.6468 40.75L36.5184 40.8261L36.6015 39.875H35.6468V40.75ZM27.6284 40.7989C27.6379 40.9684 27.6653 41.1393 27.7148 41.3084L29.3943 40.8166C29.3854 40.7864 29.3784 40.7485 29.3758 40.7011L27.6284 40.7989ZM27.7148 41.3084C28.0008 42.2849 28.6845 43.1508 29.6078 43.8989C30.5353 44.6504 31.7534 45.3236 33.2055 45.9072L33.858 44.2835C32.5127 43.7428 31.4615 43.1486 30.7094 42.5392C29.9532 41.9264 29.547 41.338 29.3943 40.8166L27.7148 41.3084ZM33.2055 45.9072C36.1089 47.074 39.9142 47.8682 44.0759 48.2004L44.2152 46.4559C40.1699 46.133 36.5498 45.3653 33.858 44.2835L33.2055 45.9072ZM44.0759 48.2004C48.2434 48.5329 52.5984 48.3886 56.5337 47.7853L56.2685 46.0555C52.4738 46.6372 48.2548 46.7783 44.2152 46.4559L44.0759 48.2004ZM56.5337 47.7853C60.4554 47.184 63.826 46.1475 66.1324 44.7779L65.2389 43.2733C63.2017 44.4829 60.0769 45.4715 56.2685 46.0555L56.5337 47.7853ZM66.1324 44.7779C67.8938 43.732 69.1348 42.4284 69.3955 40.8969L67.6703 40.6031C67.5384 41.378 66.8383 42.3235 65.2389 43.2733L66.1324 44.7779ZM68.5329 39.875H64.9967V41.625H68.5329V39.875ZM64.2742 40.2565C63.4248 41.5003 60.4194 44.125 49.6325 44.125V45.875C60.6014 45.875 64.3707 43.2182 65.7193 41.2435L64.2742 40.2565ZM49.6325 44.125C44.1858 44.125 40.7763 43.5056 38.7813 42.721C36.707 41.9053 36.4964 41.0785 36.5184 40.8261L34.775 40.6739C34.6433 42.1821 35.9309 43.4805 38.1408 44.3495C40.4298 45.2497 44.0902 45.875 49.6325 45.875V44.125ZM35.6468 39.875H28.5022V41.625H35.6468V39.875Z" fill="url(#paint2_linear_83_7270)"/>
</g>
<path d="M56.9453 33.0625L65.6952 34.875L58.4453 37.5625L56.9453 33.0625Z" fill="white"/>
<path d="M68.5052 39.7332C68.1663 38.232 66.4173 36.7104 63.6953 35.5625L60.7001 36.6333C64.119 37.8983 65.698 39.4521 65.2578 40.3125C64.487 41.8197 61.5703 45 49.6328 45C37.6953 45 35.0078 42.0625 35.7578 40.3125C36.3297 38.9783 38.4175 37.4988 43.8447 36.04L38.8828 32.375C35.5078 33.625 34.5705 34.1875 32.5078 35.5C30.383 37 28.1163 39.5645 28.555 41.0625C28.9936 42.5604 30.7346 43.9711 33.5322 45.0954C36.3297 46.2196 40.0425 47.0006 44.146 47.3281C48.2495 47.6555 52.5365 47.5129 56.4015 46.9204C60.2665 46.3278 63.5142 45.3151 65.6861 44.0256C67.8578 42.736 68.844 41.2345 68.5052 39.7332Z" fill="white"/>
</g>
<defs>
<linearGradient id="paint0_linear_83_7270" x1="50.5" y1="0" x2="50.5" y2="100" gradientUnits="userSpaceOnUse">
<stop stop-color="#0B20B5"/>
<stop offset="1" stop-color="#050E4F"/>
</linearGradient>
<linearGradient id="paint1_linear_83_7270" x1="48.5364" y1="31.8828" x2="48.5364" y2="47.9377" gradientUnits="userSpaceOnUse">
<stop stop-color="#0B20B5"/>
<stop offset="1" stop-color="#050E4F"/>
</linearGradient>
<linearGradient id="paint2_linear_83_7270" x1="48.573" y1="39.875" x2="48.573" y2="48.3751" gradientUnits="userSpaceOnUse">
<stop stop-color="#0B20B5"/>
<stop offset="1" stop-color="#050E4F"/>
</linearGradient>
<clipPath id="clip0_83_7270">
<rect width="100" height="100" fill="white" transform="translate(0.5)"/>
</clipPath>
</defs>
</svg>
