<svg width="91" height="100" viewBox="0 0 91 100" fill="none" xmlns="http://www.w3.org/2000/svg">
<g clip-path="url(#clip0_83_7295)">
<path d="M79.6337 74.0122L45.874 97.784L12.0437 74.0046L2.54297 14.5576L46.6738 1.88965L88.4768 14.5398L79.6337 74.0122Z" fill="white" stroke="black" stroke-width="3.625"/>
<path d="M21.25 76.0651V72.5596H23.4055V73.1526H21.837V73.9297H23.2964V74.5203H21.837V75.4744H23.461V76.0651H21.25Z" fill="black"/>
<path d="M23.9653 76.0651V72.5596H24.5365L25.7262 74.9006V72.5596H26.2716V76.0651H25.6826L24.5107 73.7791V76.0651H23.9653Z" fill="black"/>
<path d="M26.8936 76.0651V72.5596H29.0491V73.1526H27.4806V73.9297H28.9399V74.5203H27.4806V75.4744H29.1046V76.0651H26.8936Z" fill="black"/>
<path d="M29.604 76.0651V72.5596H30.8394C31.15 72.5596 31.3754 72.5914 31.5155 72.6552C31.657 72.7174 31.77 72.8289 31.8546 72.9901C31.9393 73.1511 31.9815 73.3351 31.9815 73.5423C31.9815 73.8054 31.9174 74.0229 31.7893 74.1952C31.661 74.3657 31.4693 74.4733 31.2141 74.5179C31.341 74.6072 31.4455 74.7053 31.5275 74.8121C31.6108 74.9188 31.7224 75.1086 31.8625 75.3812L32.2175 76.0651H31.5155L31.0911 75.3023C30.9405 75.0297 30.8374 74.8583 30.7819 74.7882C30.7264 74.7164 30.6675 74.6678 30.6054 74.6423C30.5433 74.6152 30.4448 74.6017 30.3099 74.6017H30.1909V76.0651H29.604ZM30.1909 74.0421H30.6253C30.9068 74.0421 31.0826 74.0278 31.1526 73.9991C31.2228 73.9704 31.2776 73.9209 31.3173 73.8508C31.3569 73.7807 31.3768 73.6931 31.3768 73.5878C31.3768 73.4698 31.3503 73.3749 31.2974 73.3032C31.2459 73.2299 31.1725 73.1837 31.0773 73.1646C31.0298 73.1566 30.887 73.1526 30.649 73.1526H30.1909V74.0421Z" fill="black"/>
<path d="M33.8895 74.7764V74.1858H35.1547V75.5823C35.0318 75.7256 34.8533 75.8524 34.6193 75.9624C34.3867 76.0707 34.1507 76.125 33.9114 76.125C33.6073 76.125 33.3423 76.0485 33.1162 75.8955C32.8902 75.7409 32.7203 75.5209 32.6065 75.2355C32.4929 74.9485 32.436 74.6369 32.436 74.3005C32.436 73.9355 32.4995 73.6111 32.6264 73.3274C32.7533 73.0436 32.939 72.826 33.1837 72.6745C33.37 72.5581 33.602 72.5 33.8797 72.5C34.2405 72.5 34.5222 72.5916 34.7244 72.775C34.9279 72.9568 35.0588 73.2086 35.117 73.5306L34.534 73.6621C34.493 73.49 34.4157 73.3545 34.302 73.2556C34.1897 73.1551 34.0489 73.105 33.8797 73.105C33.6232 73.105 33.4189 73.203 33.2669 73.3991C33.1162 73.5951 33.0409 73.8861 33.0409 74.2719C33.0409 74.6879 33.1175 75.0004 33.2709 75.2091C33.4242 75.4164 33.6252 75.52 33.8737 75.52C33.9967 75.52 34.1195 75.4914 34.2425 75.434C34.3668 75.375 34.4732 75.304 34.5618 75.2211V74.7764H33.8895Z" fill="black"/>
<path d="M35.6802 76.0651V72.5596H36.2672V76.0651H35.6802Z" fill="black"/>
<path d="M38.613 76.0651V73.1526H37.7505V72.5596H40.0606V73.1526H39.2V76.0651H38.613Z" fill="black"/>
<path d="M40.4414 76.0651V72.5596H42.5969V73.1526H41.0283V73.9297H42.4878V74.5203H41.0283V75.4744H42.6524V76.0651H40.4414Z" fill="black"/>
<path d="M43.1519 76.0651V72.5596H44.3874C44.698 72.5596 44.9234 72.5914 45.0635 72.6552C45.205 72.7174 45.318 72.8289 45.4026 72.9901C45.4872 73.1511 45.5295 73.3351 45.5295 73.5423C45.5295 73.8054 45.4654 74.0229 45.3371 74.1952C45.2089 74.3657 45.0172 74.4733 44.7621 74.5179C44.889 74.6072 44.9935 74.7053 45.0754 74.8121C45.1587 74.9188 45.2704 75.1086 45.4105 75.3812L45.7655 76.0651H45.0635L44.6391 75.3023C44.4885 75.0297 44.3854 74.8583 44.3297 74.7882C44.2742 74.7164 44.2155 74.6678 44.1534 74.6423C44.0912 74.6152 43.9927 74.6017 43.8579 74.6017H43.7389V76.0651H43.1519ZM43.7389 74.0421H44.1731C44.4547 74.0421 44.6305 74.0278 44.7006 73.9991C44.7707 73.9704 44.8255 73.9209 44.8652 73.8508C44.9049 73.7807 44.9247 73.6931 44.9247 73.5878C44.9247 73.4698 44.8982 73.3749 44.8454 73.3032C44.7939 73.2299 44.7205 73.1837 44.6252 73.1646C44.5776 73.1566 44.4349 73.1526 44.197 73.1526H43.7389V74.0421Z" fill="black"/>
<path d="M46.0864 72.5596H47.2484C47.4784 72.5596 47.6497 72.5716 47.7621 72.5954C47.8757 72.6178 47.9768 72.6656 48.0654 72.7389C48.1553 72.8123 48.2299 72.9103 48.2894 73.0331C48.3489 73.1542 48.3787 73.2904 48.3787 73.4419C48.3787 73.6061 48.3417 73.7568 48.2677 73.8938C48.1949 74.0309 48.0958 74.1338 47.9702 74.2023C48.1473 74.2644 48.2836 74.3704 48.3787 74.5203C48.4739 74.6702 48.5214 74.8463 48.5214 75.0488C48.5214 75.2082 48.4904 75.3637 48.4283 75.5151C48.3674 75.6649 48.2836 75.7853 48.1764 75.8762C48.0707 75.9654 47.9398 76.0204 47.7838 76.0411C47.6859 76.0538 47.4501 76.0618 47.0759 76.0651H46.0864V72.5596ZM46.6733 73.1431V73.9537H47.0581C47.2868 73.9537 47.4288 73.9497 47.4844 73.9417C47.5848 73.9273 47.6636 73.8859 47.7203 73.8173C47.7786 73.7472 47.8076 73.6556 47.8076 73.5423C47.8076 73.4339 47.7824 73.3463 47.7323 73.2793C47.6833 73.2108 47.6099 73.1693 47.5122 73.1549C47.4539 73.1471 47.2868 73.1431 47.0104 73.1431H46.6733ZM46.6733 74.5371V75.4744H47.2167C47.4282 75.4744 47.5624 75.4672 47.6192 75.4529C47.7064 75.4338 47.7772 75.3876 47.8314 75.3142C47.8869 75.2393 47.9147 75.1397 47.9147 75.0153C47.9147 74.9101 47.8936 74.8208 47.8512 74.7476C47.8089 74.6742 47.7474 74.6208 47.6668 74.5873C47.5876 74.5538 47.4143 74.5371 47.1473 74.5371H46.6733Z" fill="black"/>
<path d="M51.6416 76.0651H51.0031L50.7492 75.2688H49.5872L49.3474 76.0651H48.7246L49.857 72.5596H50.4776L51.6416 76.0651ZM50.5609 74.6782L50.1604 73.3773L49.7677 74.6782H50.5609Z" fill="black"/>
<path d="M51.9565 76.0651V72.5596H52.5435V73.9393H53.6937V72.5596H54.2805V76.0651H53.6937V74.5323H52.5435V76.0651H51.9565Z" fill="black"/>
<path d="M57.5111 76.0651H56.8726L56.6189 75.2688H55.4569L55.2169 76.0651H54.5942L55.7265 72.5596H56.3471L57.5111 76.0651ZM56.4305 74.6782L56.0299 73.3773L55.6372 74.6782H56.4305Z" fill="black"/>
<path d="M57.8257 76.0651V72.5596H59.0611C59.3717 72.5596 59.5971 72.5914 59.7372 72.6552C59.8787 72.7174 59.9917 72.8289 60.0763 72.9901C60.1609 73.1511 60.2032 73.3351 60.2032 73.5423C60.2032 73.8054 60.1391 74.0229 60.0109 74.1952C59.8827 74.3657 59.6909 74.4733 59.4358 74.5179C59.5627 74.6072 59.6672 74.7053 59.7492 74.8121C59.8324 74.9188 59.9441 75.1086 60.0843 75.3812L60.4392 76.0651H59.7372L59.3129 75.3023C59.1622 75.0297 59.0591 74.8583 59.0036 74.7882C58.9481 74.7164 58.8892 74.6678 58.8271 74.6423C58.7649 74.6152 58.6664 74.6017 58.5316 74.6017H58.4126V76.0651H57.8257ZM58.4126 74.0421H58.8469C59.1284 74.0421 59.3043 74.0278 59.3743 73.9991C59.4444 73.9704 59.4993 73.9209 59.5389 73.8508C59.5786 73.7807 59.5984 73.6931 59.5984 73.5878C59.5984 73.4698 59.5719 73.3749 59.5191 73.3032C59.4676 73.2299 59.3942 73.1837 59.2989 73.1646C59.2514 73.1566 59.1087 73.1526 58.8707 73.1526H58.4126V74.0421Z" fill="black"/>
<path d="M60.7549 72.5596H61.3419V74.4582C61.3419 74.7594 61.3491 74.9547 61.3638 75.0441C61.3889 75.1874 61.4483 75.3031 61.5421 75.3907C61.6374 75.4768 61.7669 75.5198 61.9309 75.5198C62.0974 75.5198 62.223 75.4792 62.3076 75.3979C62.3923 75.3151 62.4431 75.2138 62.4603 75.0942C62.4775 74.9747 62.486 74.7762 62.486 74.4988V72.5596H63.073V74.4008C63.073 74.8217 63.0571 75.1189 63.0254 75.2927C62.9938 75.4664 62.9349 75.6131 62.8489 75.7327C62.7644 75.8522 62.6506 75.9478 62.5079 76.0196C62.3651 76.0897 62.1788 76.1248 61.9486 76.1248C61.671 76.1248 61.4603 76.0866 61.3161 76.0101C61.1734 75.9319 61.0603 75.8314 60.977 75.7088C60.8938 75.5844 60.8389 75.4544 60.8124 75.3189C60.7741 75.1182 60.7549 74.8217 60.7549 74.4294V72.5596Z" fill="black"/>
<path d="M63.7012 76.0651V72.5596H64.2882V74.1162L65.4739 72.5596H66.2632L65.1685 73.9249L66.3227 76.0651H65.5632L64.764 74.4199L64.2882 75.0057V76.0651H63.7012Z" fill="black"/>
<path d="M69.2499 76.0651H68.6114L68.3576 75.2688H67.1956L66.9556 76.0651H66.333L67.4653 72.5596H68.086L69.2499 76.0651ZM68.1693 74.6782L67.7686 73.3773L67.376 74.6782H68.1693Z" fill="black"/>
<path d="M69.5693 76.0651V72.5596H70.1403L71.3301 74.9006V72.5596H71.8755V76.0651H71.2865L70.1146 73.7791V76.0651H69.5693Z" fill="black"/>
<path d="M38.9762 71.125V68.4248H38.0005V67.875H40.6136V68.4248H39.6401V71.125H38.9762Z" fill="black"/>
<path d="M41.0444 71.125V67.875H43.4827V68.4248H41.7084V69.1452H43.3593V69.6929H41.7084V70.5774H43.5454V71.125H41.0444Z" fill="black"/>
<path d="M44.1172 71.125V67.875H44.7812V69.3183L46.1224 67.875H47.0152L45.7771 69.1409L47.0826 71.125H46.2234L45.3194 69.5997L44.7812 70.1429V71.125H44.1172Z" fill="black"/>
<path d="M47.4341 71.125V67.875H48.0801L49.4258 70.0454V67.875H50.0427V71.125H49.3766L48.0508 69.0056V71.125H47.4341Z" fill="black"/>
<path d="M50.7275 71.125V67.875H51.3915V71.125H50.7275Z" fill="black"/>
<path d="M52.0352 71.125V67.875H52.699V69.3183L54.0404 67.875H54.9332L53.6949 69.1409L55.0004 71.125H54.1413L53.2374 69.5997L52.699 70.1429V71.125H52.0352Z" fill="black"/>
<path d="M64.125 56.8125L68.3125 45.5H74.3125L68.3125 54.0625H73.875L64.125 65.3125L68.3125 56.8125H64.125Z" fill="#F30100"/>
<path d="M28.188 56.8125L24.0005 45.5H18.0005L24.0005 54.0625H18.438L28.188 65.3125L24.0005 56.8125H28.188Z" fill="#F30100"/>
<path d="M46.75 24.6579L52.75 19.25V30.0659L46.75 24.6579Z" fill="#0101F7"/>
<path d="M46.375 24.6579L40.375 19.25V30.0659L46.375 24.6579Z" fill="#0101F7"/>
<path d="M42.7505 22.0967C33.2309 23.7793 26.0005 32.0862 26.0005 42.0804C26.0005 53.2889 35.0947 62.3752 46.313 62.3752C57.5312 62.3752 66.6255 53.2889 66.6255 42.0804C66.6255 32.3504 59.7722 24.2197 50.6255 22.2439V26.8764C57.2625 28.7519 62.1255 34.8488 62.1255 42.0804C62.1255 50.8058 55.046 57.8791 46.313 57.8791C37.58 57.8791 30.5005 50.8058 30.5005 42.0804C30.5005 34.5789 35.7331 28.2987 42.7505 26.6843V22.0967Z" fill="#0101F7"/>
<path d="M46.6264 53.0442L46.7037 53.2501L46.8411 53.0782C47.3927 52.3882 48.2332 51.797 49.2597 51.2515C50.2851 50.7065 51.4859 50.2125 52.7511 49.712C52.9842 49.6197 53.2196 49.5273 53.4563 49.4343C55.7823 48.5206 58.2483 47.552 60.1393 46.1937C62.2496 44.6778 63.2981 42.0678 63.4572 38.8423C63.6164 35.6161 62.8877 31.7561 61.4237 27.7077L61.3341 27.46L61.1989 27.6861C61.0289 27.9701 60.8831 28.2351 60.7473 28.485C60.7231 28.5297 60.6991 28.5738 60.6754 28.6175C60.5664 28.8187 60.4629 29.0097 60.3562 29.1952C60.0974 29.6446 59.8222 30.0556 59.4178 30.4721C58.6071 31.3068 57.2654 32.1757 54.4663 33.3968C53.7708 33.7002 53.0264 33.9613 52.2653 34.2207C52.1574 34.2575 52.0492 34.2942 51.9407 34.3311C51.2853 34.5535 50.6216 34.7788 49.9749 35.0313C48.4679 35.6196 47.0373 36.3616 45.9886 37.5837C43.8823 40.038 43.3652 44.3622 46.6264 53.0442Z" fill="white" stroke="black" stroke-width="0.25"/>
<path fill-rule="evenodd" clip-rule="evenodd" d="M53.4099 49.3184C55.7391 48.4034 58.1899 47.4405 60.0673 46.092C64.2028 43.1215 64.2281 35.8271 61.3072 27.75C61.1086 28.0819 60.9428 28.3879 60.7867 28.6763C59.8818 30.3468 59.2973 31.426 54.5173 33.5113C53.7171 33.8603 52.8541 34.1531 51.9814 34.4494C47.4426 35.99 42.6442 37.6186 45.0744 47.6971C45.7413 45.4396 46.9517 43.0756 49.1257 41.75C51.6974 40.1819 53.5603 39.3121 55.0628 38.6105C56.5546 37.9141 57.6909 37.3835 58.8132 36.5C61.0658 34.7266 58.4586 37.7794 55.0007 39.6875C51.5918 41.5686 45.3822 45.3259 46.8094 52.9206C48.0738 51.4146 50.6568 50.4 53.4099 49.3184Z" fill="#90CC00"/>
<path d="M46.75 52.625L46.9375 53.5L46.375 54.25L45.8125 53.5L44.375 50.1875L45.4375 48.3125L46.75 52.625Z" fill="white"/>
<path d="M44.1712 54.624L44.2894 54.6396L44.3107 54.5223C44.3543 54.28 44.3984 54.0361 44.4428 53.791C44.9222 51.1426 45.4286 48.3453 45.7291 45.6893C46.0572 42.789 46.1417 40.0446 45.6728 37.8368C45.1984 35.6035 43.4056 33.4666 40.6977 31.7462C37.9871 30.0241 34.3453 28.7095 30.1421 28.1262L29.8828 28.0903L30.0178 28.3146C31.3604 30.5445 32.5719 33.0086 31.9221 36.918C31.8412 37.4042 31.6779 38.0035 31.4878 38.6927C31.4803 38.72 31.4727 38.7475 31.4651 38.7751C31.2813 39.4408 31.0762 40.184 30.9028 40.9738C30.5418 42.6183 30.3157 44.4778 30.7064 46.2966C31.0983 48.12 32.1086 49.8945 34.2046 51.3668C36.2968 52.8366 39.4658 54.002 44.1712 54.624Z" fill="white" stroke="black" stroke-width="0.25"/>
<path d="M43.168 54.373L43.9677 55.1874L44.46 55.25L45.3827 52.7443L44.5215 52.4937L43.168 54.373Z" fill="white"/>
<path d="M44.5653 52.4641C45.4914 47.2806 46.3682 41.7436 45.5506 37.885C44.6214 33.4999 38.5021 29.4151 30.125 28.25C31.4741 30.4961 32.7024 32.9974 32.0454 36.9585C31.96 37.4733 31.7849 38.1093 31.5859 38.832C30.2776 43.5819 27.9389 52.0739 43.2985 54.4339C41.4303 53.3964 37.0607 50.4255 36.737 46.1134C36.5266 43.3105 36.587 41.3859 36.6357 39.8335C36.6841 38.2924 36.721 37.1182 36.4699 35.8161C35.9658 33.2025 37.3491 36.6245 37.4717 40.3136C37.5917 43.9201 38.0695 50.594 44.5653 52.4641Z" fill="#90CC00"/>
<path d="M46.6247 5.625L48.5173 9.90224L53.282 10.3323L49.687 13.4059L50.7392 17.9489L46.6247 15.5713L42.5102 17.9489L43.5623 13.4059L39.9673 10.3323L44.732 9.90224L46.6247 5.625Z" fill="#F30100"/>
</g>
<defs>
<clipPath id="clip0_83_7295">
<rect width="90" height="100" fill="white" transform="translate(0.5)"/>
</clipPath>
</defs>
</svg>
